<?xml version="1.0" encoding="UTF-8" standalone="no"?>
<svg xmlns="http://www.w3.org/2000/svg" xmlns:xlink="http://www.w3.org/1999/xlink" width="33.064mm" height="34.485mm" viewBox="374.085266 205.072556 33.064056 34.484558">
    <path style="stroke:none;fill:#000000;fill-rule:evenodd" d="M395.891571,205.102493C396.498932,205.154083,397.096191,205.289932,397.666351,205.505463L397.891052,205.567734C398.256836,205.684784,398.655182,205.647781,398.992554,205.464401L399.15683,205.424683C399.643219,205.346176,400.13855,205.339066,400.626984,205.403931L401.172089,205.458527C401.913544,205.534103,402.660553,205.539764,403.403076,205.475235L403.764954,205.462601C404.235809,205.420334,404.710419,205.4599,405.167908,205.57901C405.496887,205.711487,405.786072,205.92717,406.007233,206.204453C406.297821,206.492035,406.556274,206.810349,406.777954,207.15387C406.938843,207.510117,407.012207,207.899292,406.991852,208.289673C406.992218,208.435455,406.989929,208.581192,406.985535,208.726929L406.981476,209.034225C406.979126,209.86525,407.031372,210.695572,407.138062,211.519699L407.149323,211.773758C407.156006,212.866028,406.627991,213.892746,405.736023,214.523209C405.373749,214.821472,404.947937,215.033005,404.491486,215.141876L404.323608,216.975754C404.112457,219.039825,403.953857,221.108673,403.847992,223.180862C403.804443,223.900696,403.826721,224.62294,403.914337,225.338745C403.989349,225.74794,404.111115,226.147232,404.27713,226.528687L404.437775,226.977676C404.761169,227.822266,405.007233,228.694534,405.172852,229.583633C405.337585,230.759399,405.356659,231.950867,405.230164,233.131348C405.167725,233.517303,405.031342,233.887573,404.828094,234.221573L404.466217,234.838425L405.10022,234.837524C405.202972,235.294632,405.280182,235.757126,405.331238,236.222855C405.393219,236.984558,405.313965,237.751144,405.097504,238.48407C405.035706,238.760803,404.893616,239.013779,404.688232,239.209213C404.446259,239.339569,404.177277,239.412018,403.902588,239.42131C402.637238,239.527603,401.36731,239.56955,400.097656,239.547211C398.945984,239.575409,397.793549,239.543686,396.645172,239.451996C396.271423,239.424988,395.903564,239.344193,395.553131,239.211472C395.241241,239.087265,395.01889,238.80571,394.975555,238.472778C394.946045,238.273849,394.933441,238.072784,394.937653,237.871719L394.92276,237.742218C394.924042,237.586456,394.858398,237.436356,394.740906,237.33429L394.690369,237.320297L394.647034,237.324799C393.219055,237.634094,391.799408,237.980591,390.389496,238.364029L389.724823,238.526932C388.893463,238.747742,388.050812,238.92366,387.200531,239.053986L387.122467,239.058502C386.899689,239.053253,386.679504,239.10582,386.482605,239.210129C386.443298,239.23793,386.407562,239.270264,386.376099,239.306686L386.345428,239.334213L386.289001,239.360382C385.908264,239.453156,385.518433,239.503265,385.126587,239.509308C383.94339,239.587448,382.755829,239.570709,381.575256,239.459213C381.411255,239.46257,381.250092,239.407562,381.128998,239.297211L381.020233,239.248474C380.657959,239.13533,380.285858,239.056641,379.908813,239.013382L378.995483,238.900574C377.946716,238.771103,376.922546,238.488861,375.955414,238.063049C375.483612,237.853958,375.05307,237.562103,374.683807,237.201614C374.134979,236.679077,373.94165,235.885101,374.190125,235.169189C374.22226,235.079453,374.301483,235.014114,374.394989,234.99411C374.489563,234.970963,374.587463,234.964417,374.683807,234.97876L374.672974,234.964783C374.554474,234.687347,374.491547,234.389618,374.486145,234.087997C374.255768,231.470123,375.722473,228.998642,378.130432,227.94606C379.148041,227.606537,380.189575,227.343552,381.246307,227.159073C381.618134,227.088623,381.991913,227.020004,382.364502,226.953766L382.868103,226.858551C383.79657,226.70752,384.705811,226.45517,385.579193,226.105865C386.102203,225.897079,386.560822,225.553894,386.909027,225.111313C387.238739,224.633911,387.440704,224.07988,387.494293,223.502151C387.586792,222.496201,387.573822,221.483398,387.455475,220.480148C387.303375,219.062531,387.142761,217.648407,386.973114,216.232544L386.927521,215.743835C386.91098,215.557831,386.897095,215.371613,386.886017,215.185196C386.124542,215.247772,385.364532,215.045059,384.737152,214.608948C384.178802,214.19548,383.751984,213.629974,383.506622,212.97995C383.391785,212.506378,383.347534,212.018402,383.375305,211.531891C383.397858,210.580627,383.451263,209.630478,383.535492,208.682709C383.591278,208.08606,383.735901,207.501083,383.96463,206.947205C384.177673,206.409988,384.566406,205.960327,385.067474,205.672424C385.617279,205.399597,386.23233,205.286713,386.84314,205.346619L387.532196,205.417023C388.27771,205.470215,389.026947,205.402527,389.750977,205.217117L390.017242,205.172897C390.544861,205.112488,391.079285,205.186691,391.570862,205.38768L391.888092,205.492371C392.404938,205.695984,392.985901,205.664886,393.476501,205.404388L393.68045,205.326767C394.394135,205.100433,395.147003,205.023895,395.891571,205.102493z"/>
</svg>
