<?xml version="1.0" encoding="UTF-8" standalone="no"?>
<svg xmlns="http://www.w3.org/2000/svg" xmlns:xlink="http://www.w3.org/1999/xlink" width="73.289mm" height="59.996mm" viewBox="204.119278 199.565598 73.288620 59.995987">
    <path style="stroke:none;fill:#000000;fill-rule:evenodd" d="M254.932709,259.525482C253.727295,259.406708,253.040054,259.014618,252.880569,258.354645C252.756027,257.839264,253.004929,256.647247,253.284332,256.42099C253.594879,256.169525,254.592926,256.132263,255.633652,256.333282C256.684082,256.536163,257.243774,256.323425,258.219513,255.350464C260.023712,253.551437,260.9617,250.334732,260.362518,248.001373C259.95459,246.412689,259.259277,245.480591,258.481201,245.479324C258.048157,245.478607,257.255646,245.932281,256.674164,246.513779C256.029633,247.158295,255.323914,248.198059,253.527313,251.150162C251.789917,254.004944,250.945465,255.207901,250.050888,256.102478C249.161072,256.992279,248.81398,257.095093,247.214218,256.942657C245.089706,256.740234,243.573273,256.196228,243.268417,255.527145C243.043091,255.032623,243.255402,254.384537,243.83139,253.808533C244.472321,253.167618,244.83316,253.08461,245.919891,253.328094C247.60907,253.706558,248.010803,253.394684,250.310852,249.919449C252.860962,246.066345,253.400452,244.890961,253.400452,243.188156C253.400452,242.433517,253.342911,242.188812,253.021576,241.57695C251.811111,239.272095,248.731613,236.201416,246.010803,234.586258C243.077789,232.845123,240.175476,232.371109,237.643829,233.219727C234.327606,234.331329,231.62413,236.324783,230.44606,238.527084C229.173447,240.906113,228.901993,243.535782,229.308609,249.546021C229.416473,251.140289,229.485718,253.110458,229.462479,253.924164C229.425934,255.204498,229.378799,255.486572,229.112274,256.019897C228.554138,257.136688,227.39505,257.622833,225.290543,257.622833C224.122162,257.622833,223.92746,257.589172,223.292755,257.277496C222.38179,256.830139,221.961731,256.335876,221.961731,255.711334C221.961731,255.089371,222.286331,254.835876,223.652435,254.390991C225.424683,253.813828,225.615509,253.438507,225.488266,250.780289C225.444443,249.864868,225.3573,247.839508,225.294601,246.27951C225.178162,243.382645,225.04863,242.600708,224.643265,242.347656C224.007355,241.950668,223.403259,243.074402,221.705963,247.811646C219.173508,254.879883,218.176987,257.227478,217.345871,258.083252C216.703873,258.744324,215.888611,258.979736,214.256165,258.975464C212.228241,258.970184,210.934479,258.492737,210.476196,257.580566C210.227859,257.086273,210.344055,256.547333,210.796539,256.094849C211.061066,255.830322,211.250153,255.782059,212.309723,255.708588C214.336929,255.567993,214.553635,255.357056,216.295853,251.828247C220.086105,244.151291,221.645859,238.494537,221.633087,232.471863C221.627899,230.023987,221.431229,228.84613,220.810242,227.543793C220.311371,226.497559,219.54425,225.698318,218.63887,225.281479C218.020752,224.996887,217.841064,224.97403,216.403076,224.997055C213.985855,225.035767,212.473831,224.634384,210.787094,223.506226C209.557388,222.683746,208.667786,221.592117,207.845306,219.896378C206.445938,217.01123,204.468399,212.588867,204.267365,211.89505C204.072083,211.221069,204.071304,211.137039,204.256775,210.748108C204.804138,209.600281,207.022156,209.537231,210.257141,210.577545L211.405136,210.946716L211.594315,210.674911C212.537643,209.319519,213.753922,208.619186,215.704803,208.308105C216.153961,208.236481,216.16716,208.219604,216.167633,207.715988C216.168427,206.89386,216.51181,204.994064,216.80069,204.213531C217.110748,203.375824,217.822021,202.25116,218.15419,202.07338C218.355515,201.965637,218.454224,202.053467,218.8853,202.723877C219.159409,203.150146,219.663177,204.081467,220.004791,204.793457C220.346405,205.505447,220.663895,206.163147,220.710327,206.25502C220.75676,206.346878,221.265381,206.600571,221.840576,206.818787C224.196808,207.712692,225.827209,208.867767,226.460022,210.091492C226.568436,210.301132,226.721466,210.914001,226.800079,211.453415C226.975586,212.657486,226.792877,214.939423,226.336304,217.245651C226.168503,218.093277,226.031006,218.803467,226.030746,218.823883C226.030487,218.844299,226.23439,218.946289,226.483856,219.050522C227.093903,219.30542,228.424744,219.294159,229.088715,219.028473C229.774063,218.754257,229.961319,218.382217,231.016571,215.198166C232.974823,209.289413,235.229599,206.211044,238.852341,204.500275C240.197632,203.864975,241.50795,203.494614,243.100372,203.299576C247.117279,202.807571,250.676483,204.701569,253.899292,209.046082C255.563538,211.289581,256.838013,213.598434,259.055756,218.387466C261.191345,222.999146,261.750305,223.903275,262.46582,223.903275C263.657043,223.903275,267.19635,220.716827,269.639008,217.445267C272.138123,214.098114,273.345581,211.129135,273.218964,208.6427C273.167786,207.63826,273.105591,207.387207,272.708862,206.584503C272.138519,205.430481,271.237,204.596909,269.797913,203.892944C268.756165,203.383362,268.739349,203.379837,266.96225,203.298767C264.38385,203.181137,263.242676,202.754608,262.924591,201.789627C262.722107,201.175323,262.828613,200.807632,263.338806,200.359665C263.981964,199.794952,264.935669,199.562195,266.592377,199.565598C271.469208,199.575623,275.756653,202.596558,276.986633,206.889374C277.963989,210.3004,277.251709,214.437103,274.850403,219.29599C272.940063,223.161484,270.233704,226.837646,266.284943,230.930756C264.835388,232.433304,264.626526,232.707199,264.137024,233.747406C263.636993,234.809967,263.59021,234.994766,263.53595,236.121536C263.479492,237.294266,263.492371,237.374374,263.856384,238.113159C264.119019,238.64621,264.688049,239.365372,265.706848,240.451965C267.211548,242.056793,267.560364,242.578033,267.668335,243.383148C267.774567,244.175125,267.490356,245.054535,266.018005,248.489624C262.942017,255.666107,261.362061,258.379822,259.873138,259.043823C259.057983,259.407349,256.381836,259.668243,254.932709,259.525482zM216.208755,220.077209C217.077393,219.807419,217.893188,219.296951,217.893188,219.023224C217.893188,218.67395,216.689423,218.234497,215.728943,218.23317C214.97699,218.232132,214.781784,218.281097,214.287094,218.594818C213.710312,218.960602,213.331497,219.494492,213.331497,219.94162C213.331497,220.484558,214.690979,220.54863,216.208755,220.077209zM221.412445,217.082275C222.390884,216.072083,223.166916,214.291916,222.840973,213.805283C222.609695,213.460007,221.565063,213.714645,220.931473,214.270767C220.33667,214.792847,220.026627,215.923615,220.16803,217.055283C220.24144,217.642822,220.290161,217.738815,220.514984,217.738815C220.669159,217.738815,221.037567,217.469315,221.412445,217.082275z"/>
</svg>
