<?xml version="1.0" encoding="UTF-8" standalone="no"?>
<svg xmlns="http://www.w3.org/2000/svg" xmlns:xlink="http://www.w3.org/1999/xlink" width="80.000mm" height="40.240mm" viewBox="179.443359 172.626266 80.000000 40.240311">
    <path style="stroke:none;fill:#000000;fill-rule:evenodd" d="M241.698883,212.632584C238.859634,211.750168,232.593292,210.761185,226.906464,210.297974C222.338898,209.925934,215.713669,209.8591,211.722198,210.144806C206.205383,210.539703,201.508881,211.296585,197.395569,212.453674C196.735809,212.639282,196.114731,212.791122,196.015411,212.791122C195.906647,212.791122,195.120392,212.021545,194.038681,210.856354C193.050812,209.792236,190.360321,207.048035,188.059799,204.758148C183.202774,199.923584,182.002579,198.578461,180.230499,195.983398C179.488892,194.8974,179.443359,194.800522,179.443359,194.308502C179.443359,193.455505,179.832535,193.198517,181.124222,193.198517C182.240845,193.198517,183.565308,193.496613,185.892471,194.271698C188.949326,195.289825,190.337524,195.513077,191.83902,195.227997C194.356247,194.750061,196.507355,193.198395,198.235535,190.613937C198.944229,189.554108,200.062912,187.409454,201.332977,184.67572C202.288742,182.618546,203.368011,180.669937,204.207016,179.48671C206.313156,176.516495,209.407745,174.509811,213.575745,173.411575C216.110672,172.743637,217.03241,172.626266,219.743118,172.626266C221.77713,172.626266,222.430054,172.661407,223.342621,172.819962C228.186218,173.66156,231.648285,175.747055,234.471619,179.523926C235.542206,180.956085,236.186371,182.097534,238.070053,185.900269C240.246933,190.294907,241.243744,191.814896,242.836731,193.168793C245.659409,195.56781,248.580994,195.748245,254.434082,193.885025C256.79425,193.133713,258.06604,193.000839,258.895142,193.41893C259.270142,193.608017,259.344238,193.696472,259.416626,194.041397C259.527863,194.571533,259.341217,194.980835,258.340942,196.400223C256.708496,198.716644,255.535065,199.999786,250.115326,205.394913C246.094284,209.397705,244.634003,210.91481,244.114075,211.6297C243.098938,213.025497,243.040771,213.049637,241.698883,212.632584zM214.281631,199.084351C214.792618,198.85231,214.85701,198.747482,214.85701,198.14772L214.85701,197.659973L217.192123,196.008652C219.502762,194.374649,219.530487,194.358597,219.837128,194.477875C220.760025,194.836884,223.913116,196.44397,224.173843,196.688248C224.420395,196.919235,224.491684,197.082184,224.549835,197.547653C224.603943,197.980713,224.683258,198.179153,224.872177,198.354248C225.198105,198.656311,225.750732,198.665695,226.119751,198.375427C226.373199,198.176056,226.386002,198.127716,226.350677,197.502731L226.313293,196.841095L226.67009,196.734192C227.183411,196.580414,227.543228,196.266998,227.543228,195.973679C227.543228,195.707092,227.117081,195.246384,226.644379,195.001953C226.357285,194.853485,226.201263,194.897354,225.661774,195.278229C225.530441,195.370956,225.415833,195.367691,225.12616,195.262939C224.65155,195.091309,221.152054,193.487976,221.046448,193.393768C220.957794,193.314667,223.463928,191.610657,224.301102,191.180832L224.830551,190.908997L225.427673,191.123123C226.213593,191.404953,226.424332,191.393585,226.767059,191.050858C227.337219,190.480698,227.060104,189.730499,226.18219,189.467468C225.887802,189.379272,225.78923,189.303452,225.822113,189.190552C226.161789,188.024612,225.783844,187.497391,224.860992,187.849823C224.153854,188.119888,224.068558,188.2202,224.090668,188.755768C224.101471,189.017151,224.076828,189.284088,224.03595,189.348953C223.922928,189.528214,219.486313,192.610733,219.341309,192.610733C219.156342,192.610733,216.165039,191.198685,215.38533,190.743317C214.656113,190.317429,214.416473,190.053299,214.415634,189.67453C214.415329,189.538361,214.368637,189.259659,214.311859,189.055222C214.181854,188.587051,213.734924,188.338928,213.201797,188.438934C212.69458,188.534088,212.526489,188.837479,212.569351,189.58046L212.603851,190.178619L212.227203,190.308731C211.763809,190.468811,211.379318,190.816544,211.379318,191.075562C211.379318,191.311783,212.079361,191.99823,212.403122,192.079483C212.560593,192.119003,212.781708,192.05365,213.077957,191.880035C213.595917,191.576492,213.297791,191.487778,216.115372,192.783875L217.961517,193.633118L217.682785,193.860031C217.191284,194.260162,215.265884,195.51709,214.737808,195.782547C214.124176,196.091003,213.982178,196.097198,213.338593,195.843506C212.675323,195.582092,212.590561,195.592316,212.202209,195.980667C211.766312,196.416565,211.750778,196.829895,212.156082,197.208511C212.313904,197.355942,212.589432,197.519653,212.768356,197.572311C213.007568,197.642715,213.087265,197.718292,213.069443,197.857864C212.996246,198.43129,213.026367,198.985153,213.138062,199.119751C213.307404,199.323776,213.787079,199.308929,214.281631,199.084351z"/>
</svg>
