<?xml version="1.0" encoding="UTF-8" standalone="no"?>
<svg xmlns="http://www.w3.org/2000/svg" xmlns:xlink="http://www.w3.org/1999/xlink" width="56.764mm" height="60.000mm" viewBox="300.617767 200.322235 56.764496 60.000000">
    <path style="stroke:none;fill:#000000;fill-rule:evenodd" d="M320.027069,260.024475C319.233337,259.619995,318.761993,258.645416,318.682465,257.244202C318.588379,255.586502,318.911652,254.380325,320.016998,252.264679C321.167603,250.062363,321.78241,248.581833,321.546356,248.581833C321.319519,248.581833,319.522278,250.866074,318.753845,252.131058C318.241333,252.974747,318.01004,253.197113,317.496643,253.339691C316.130402,253.719147,313.880219,253.362732,313.172211,252.654724C312.321716,251.80423,312.528809,250.573486,314.31192,245.880936C314.916138,244.290863,315.56012,242.418579,315.743011,241.720306C316.162964,240.11702,316.367767,238.738312,316.151886,238.968094C316.063965,239.061676,315.435883,240.47821,314.756134,242.115952C314.076385,243.753693,313.463379,245.15329,313.39389,245.226151C313.15332,245.478378,312.371185,244.650833,311.855377,243.598343C311.159363,242.178101,311.068146,241.036041,311.340027,237.145416C311.579742,233.71524,311.457733,231.71936,310.935608,230.52887C310.698883,229.989197,310.68811,230.100037,310.776855,232.161896C310.86795,234.278259,310.700928,235.888535,310.328583,236.484161C310.205811,236.680557,310.048798,236.646011,309.439789,236.28862C308.32666,235.635376,307.110687,234.498428,306.732635,233.757401C306.202301,232.717834,305.931396,231.362457,305.633484,228.258011C305.480042,226.659103,305.250092,225.168625,305.117188,224.911621C304.867981,224.429672,304.65921,224.355042,302.999939,224.154755C301.172058,223.934128,300.617767,223.464951,300.617767,222.138336C300.617767,220.830795,301.783691,218.459534,302.914978,217.466248C303.754333,216.729294,304.548096,216.513809,305.521759,216.758575C306.64621,217.04126,307.289703,217.47879,309.076782,219.175751C311.118713,221.114746,312.024536,221.584503,313.554779,221.498047C316.008148,221.359421,316.885437,219.883438,318.069092,213.903107C319.039185,209.001862,319.706421,207.020294,321.116699,204.852081C322.461334,202.784836,324.159271,201.459732,326.481293,200.665466C327.905121,200.178421,330.950104,200.213959,332.462708,200.735275C335.283539,201.707474,337.092377,203.808456,338.27771,207.489471C338.857422,209.289764,339.139435,210.750519,339.658722,214.643066C340.2659,219.194672,340.635376,220.261963,342.026611,221.483505C343.537689,222.810242,345.115234,222.451004,349.30542,219.825989C353.484528,217.207901,355.219391,217.30275,356.610535,220.225403C357.296692,221.667038,357.561646,223.316345,357.259949,224.268387C356.925598,225.323547,356.411621,225.544327,355.146057,225.176422C354.348663,224.944611,354.106689,224.934525,353.671021,225.114975C352.990082,225.397049,352.249268,226.580338,351.815857,228.078186C350.475739,232.709778,350.195801,233.360474,349.07724,234.443817C348.67514,234.833252,348.012299,235.349915,347.604279,235.591949L346.862366,236.032013L346.979034,233.501419C347.043182,232.109589,347.133362,230.836823,347.179382,230.67305C347.323242,230.161285,347.091248,230.346939,346.75415,231.013367C346.24646,232.017029,345.921143,233.780457,345.617706,237.173325C345.282806,240.91832,344.944366,242.371368,343.931427,244.41304C342.962677,246.365692,341.874329,247.74231,340.929932,248.209564C340.526978,248.408936,340.176788,248.551529,340.151703,248.526459C340.126648,248.501389,340.2164,248.114532,340.351135,247.666763C340.485901,247.219009,340.709473,245.997467,340.847931,244.952225C341.155243,242.632919,341.359985,237.62352,341.127289,238.11731C341.039093,238.304489,340.724701,239.897232,340.42865,241.656754C339.234955,248.751129,337.68924,252.965103,335.733429,254.456879C334.731842,255.220795,331.756073,256.150757,331.756073,255.699829C331.756073,255.618515,332.144592,254.777786,332.619446,253.831543C333.445618,252.18515,334.138245,250.034821,334.138245,249.116119C334.138245,248.414429,333.842041,248.882401,333.039093,250.8526C332.63446,251.845474,332.099426,253.005875,331.850159,253.431244C331.238525,254.474884,329.532501,256.275146,328.182831,257.301086C326.22467,258.789581,322.62793,260.323059,321.096863,260.322235C320.82959,260.322083,320.348206,260.18808,320.027069,260.024475zM332.972748,214.196899C333.762085,213.774445,334.036469,211.908478,333.528442,210.417526C333.275208,209.674347,332.316406,208.59549,331.909119,208.59549C330.84494,208.59549,330.238525,210.560974,330.742645,212.376144C330.943207,213.098358,331.64505,214.004501,332.167572,214.215881C332.634644,214.404831,332.581879,214.406082,332.972748,214.196899zM326.155243,213.312592C327.060669,212.702423,327.728821,211.2258,327.744568,209.800095C327.75473,208.879395,327.689056,208.557373,327.433289,208.274002C326.704498,207.466522,325.592041,208.044632,324.791351,209.646896C324.130219,210.969971,324.056732,212.533264,324.621918,213.251785C325.054382,213.801575,325.408783,213.815628,326.155243,213.312592zM329.955841,220.684875C331.386444,219.80072,331.781982,217.219528,330.723572,215.674881C329.171631,213.409958,326.408783,214.760361,326.408783,217.783844C326.408783,220.239731,328.245514,221.741928,329.955841,220.684875z"/>
</svg>
