<?xml version="1.0" encoding="UTF-8" standalone="no"?>
<svg xmlns="http://www.w3.org/2000/svg" xmlns:xlink="http://www.w3.org/1999/xlink" width="142.146mm" height="100.000mm" viewBox="216.927124 168.873566 142.145752 100.000000">
    <path style="stroke:none;fill:#000000;fill-rule:evenodd" d="M249.008423,267.711487C248.728943,266.995605,248.311111,265.687592,248.079926,264.804779C247.848724,263.921936,247.491318,262.632141,247.28566,261.938477C246.579269,259.555908,246.49173,259.19696,245.719727,255.51799C244.22496,248.394623,244.290436,244.406036,245.927612,242.853928C246.673264,242.147034,246.623901,241.826523,245.739731,241.633759C244.299759,241.319794,242.619492,240.418182,241.690613,239.461029C240.831757,238.57605,240.75238,238.391266,240.75238,237.277069C240.75238,236.210022,240.847656,235.958847,241.524689,235.240967C242.173798,234.552734,242.451782,234.422089,243.267136,234.422089C243.80072,234.422089,244.598328,234.593414,245.039612,234.802826C245.800049,235.163666,247.95929,237.134384,248.841431,238.272675C249.065491,238.561798,249.338974,238.742645,249.449173,238.674545C249.561401,238.605194,249.653534,227.362183,249.658661,213.114182C249.666931,190.122314,249.632721,187.648468,249.302719,187.374298C248.583282,186.776566,231.694901,186.881821,231.694901,187.484024C231.694901,187.585098,232.288971,187.909241,233.01506,188.204346C237.297302,189.944778,240.59726,192.787354,243.545105,197.274963C246.785263,202.207535,246.912369,202.72406,244.818573,202.449799C243.172226,202.234131,239.765411,201.068069,238.234833,200.19635C234.899277,198.296631,232.268707,196.144287,227.91011,191.748611C224.16716,187.973831,223.771759,187.779633,219.958755,187.843384C217.582428,187.883118,217.104401,187.833496,216.989944,187.535263C216.706573,186.796783,217.304062,186.56955,219.887482,186.433258C223.622162,186.236237,224.15921,185.934875,228.686707,181.495789C232.998917,177.267792,234.033325,176.394058,236.733673,174.69873C238.921509,173.325165,241.344086,172.307434,243.884491,171.694641C246.818726,170.986847,246.906281,171.43219,244.555725,175.108643C242.417206,178.45343,241.147644,180.101929,239.547623,181.611542C238.368225,182.724304,235.287491,184.886292,234.86499,184.897675C234.760956,184.900482,234.417877,185.109406,234.102585,185.361938L233.529327,185.821106L240.179123,185.693756C243.836517,185.623718,247.326324,185.513458,247.93428,185.448761C250.114349,185.216721,251.209732,184.503632,254.054977,181.464233C260.595917,174.476959,263.528015,172.251831,268.301971,170.652405C270.788696,169.81929,271.708313,169.779572,271.708313,170.505341C271.708313,171.060394,269.714294,174.738342,268.221893,176.93602C265.77536,180.538681,261.469696,183.940033,258.028168,184.988739C257.755798,185.071747,257.418854,185.2771,257.279419,185.445099C257.071442,185.695709,257.572113,185.778915,260.067688,185.908508C261.740662,185.995377,265.070007,186.218903,267.466217,186.405212C271.607147,186.727173,272.726715,186.836685,277.555542,187.392044C278.963501,187.553955,279.896484,187.555008,280.491608,187.395309C281.836639,187.034409,283.56012,185.150421,285.56076,181.854187C287.775574,178.205063,288.984558,176.58313,291.313293,174.136917C293.234253,172.119019,296.341553,169.880142,298.213196,169.165344C299.224854,168.778992,299.299377,168.778229,299.572296,169.151489C300.108154,169.884338,297.75293,176.095642,295.788971,179.128876C293.671631,182.399063,290.100586,185.267014,285.351868,187.511078C283.65509,188.312912,283.601715,188.285706,288.755859,189.245422C291.978241,189.845444,299.734833,191.681824,302.320313,192.456833C306.588409,193.736206,306.477844,193.723022,307.463898,193.07048C308.654877,192.282318,309.269745,191.437271,310.833466,188.439346C314.293518,181.805908,317.274658,178.359802,321.643524,175.943222C322.528351,175.453812,322.656738,175.435959,322.978394,175.757629C323.300079,176.079315,323.289276,176.303223,322.865967,178.085602C322.125244,181.204361,320.78595,184.440979,319.337616,186.612366C317.893341,188.777634,313.00647,192.682739,310.429382,193.730942C309.804749,193.985001,309.410278,194.278,309.472992,194.44133C309.531647,194.594238,310.371185,195.000839,311.338623,195.34491C314.119049,196.333771,322.080902,199.537506,324.184204,200.513779C325.237213,201.002533,326.13736,201.40242,326.18457,201.40242C326.23175,201.40242,327.012451,201.763565,327.919464,202.204987C330.191956,203.310928,331.639587,203.318939,333.438812,202.235504C334.143951,201.810883,335.014954,201.187103,335.37439,200.849335C336.287354,199.991379,340.377533,197.225769,341.780273,196.51796C344.292725,195.250214,348.891876,194.20079,349.548218,194.745514C349.742096,194.906433,349.900757,195.162506,349.900757,195.314575C349.900757,195.913513,346.182129,200.052383,344.575317,201.241837C342.129333,203.05246,339.871429,203.945023,336.027893,204.620636C335.145081,204.775818,334.332916,204.954483,334.223083,205.01767C334.113281,205.080872,334.577606,205.409668,335.254944,205.748337C335.932312,206.087006,338.156342,207.208267,340.197266,208.240021C342.238159,209.271774,344.043945,210.118103,344.210083,210.120758C345.475647,210.140915,350.561951,212.05069,352.282288,213.151672C355.048828,214.922195,355.886139,216.072723,357.916321,220.893188C358.314697,221.839081,358.737854,222.710999,358.85675,222.830811C358.975616,222.950623,359.072876,223.28598,359.072876,223.57605C359.072876,224.4328,357.873047,224.243958,355.060059,222.944519C351.416687,221.261459,349.794861,219.711914,346.386108,214.657166C344.958679,212.540466,343.571472,211.42868,340.23761,209.729477C337.441315,208.30426,336.371857,207.857849,336.371857,208.115814C336.371857,208.168335,336.916931,209.02681,337.583191,210.023514C339.513641,212.91153,340.378845,216.360809,340.223328,220.54866C340.138062,222.84407,339.793793,223.019836,338.270386,221.54567C335.450165,218.816574,333.724213,215.505096,332.253418,210.001297C331.069305,205.57016,330.643311,204.916809,328.203491,203.789841C327.271973,203.359573,326.407104,203.007538,326.281525,203.007538C326.132019,203.007538,326.053192,208.864578,326.053192,219.975983C326.053192,229.308624,326.130585,236.944366,326.225159,236.944305C326.319763,236.944244,326.843414,236.425995,327.388855,235.792633C329.725677,233.079147,332.590057,232.498901,333.820496,234.489777C335.225403,236.762939,333.41687,239.372208,329.722046,240.402771C328.312897,240.795822,328.251923,240.890869,328.91449,241.661316C329.440125,242.272507,329.492218,242.520782,329.492462,244.415863C329.49295,247.918076,328.663239,251.902359,327.037292,256.205902C326.346375,258.034607,325.671753,259.861176,325.538116,260.264954C324.981445,261.947021,324.60376,261.369751,323.332642,256.893799C322.382813,253.549316,322.008911,251.933685,321.44873,248.75354C320.861633,245.420593,320.920654,243.425919,321.647583,242.031311C322.235687,240.903046,322.159576,240.613281,321.275146,240.613281C320.426697,240.613281,317.605042,239.225098,316.796783,238.410049C315.667877,237.271667,315.45224,236.118179,316.109436,234.733276C316.770386,233.340393,318.397888,232.89801,320.056671,233.660339C320.51712,233.871964,321.688782,234.852234,322.66037,235.838715C323.631958,236.825211,324.483856,237.632324,324.553528,237.632324C324.623199,237.632324,324.653778,229.661377,324.62146,219.919083L324.562744,202.205841L323.760162,201.802277C322.197083,201.016296,317.511108,199.067139,316.424561,198.751007C315.960327,198.615936,316.106689,198.858414,317.206055,200.045868C320.011169,203.075714,321.498566,206.302505,322.521149,211.576462C323.067322,214.393402,322.772736,214.589523,320.360779,213.014755C316.961731,210.795517,314.131958,207.083511,311.262695,201.0802C310.338654,199.14679,309.248901,197.184845,308.841034,196.720306C307.775848,195.507141,307.189667,195.241272,302.778931,193.97084C301.64386,193.643921,300.40564,193.281418,300.027283,193.165283C299.075012,192.873001,293.870667,191.610931,291.342407,191.059174C288.450531,190.428055,287.529053,190.301758,287.537506,190.537643C287.541504,190.648834,288.235931,191.204163,289.080688,191.771683C292.475647,194.05249,294.560791,196.504578,296.368805,200.342438C297.531311,202.810104,298.859741,206.789581,298.678558,207.261734C298.198578,208.512543,293.159668,205.485886,289.872162,201.972107C288.871033,200.902069,287.932617,200.026596,287.786774,200.026596C287.589203,200.026596,287.527588,203.065765,287.545013,211.950378C287.559998,219.591751,287.649353,223.874146,287.793762,223.874146C287.917725,223.874146,288.672821,223.210739,289.471741,222.399918C291.775787,220.0616,293.623352,219.406357,294.956268,220.454834C296.246765,221.46994,296.603088,223.167404,295.801636,224.481796C295.28009,225.337097,293.743164,226.436676,292.460266,226.872299C291.955811,227.04361,291.345245,227.31218,291.103455,227.469131C290.681915,227.742783,290.687134,227.763367,291.231018,227.970154C292.281769,228.369629,293.245789,229.379776,293.508942,230.35704C293.905212,231.82869,293.775391,234.846619,293.140564,238.920471C292.475952,243.185669,291.981995,245.212646,290.872375,248.227997C289.726837,251.341064,287.329315,257.400482,287.186737,257.54306C286.812653,257.917145,285.981567,255.896393,284.84491,251.849136C283.291748,246.318878,283.144653,245.764343,282.959229,244.740738C282.856384,244.173218,282.608643,242.934967,282.408661,241.989105C280.835999,234.550873,281.005829,230.433838,282.966187,228.473465C283.746613,227.693069,283.704529,227.644196,281.653015,226.947784C278.489319,225.873856,276.99939,223.637299,278.017883,221.491028C279.109375,219.190826,281.714233,219.612152,284.567963,222.550476C285.39798,223.405106,286.146088,224.035355,286.230408,223.951019C286.314758,223.866699,286.383728,217.920731,286.383728,210.737762L286.383728,197.677826L284.60907,194.782089C281.18869,189.200989,280.868591,189.017532,273.198792,188.242462C264.797424,187.393463,258.179443,187.007156,258.179443,187.365723C258.179443,187.495117,258.842682,187.911362,259.65332,188.29071C263.992676,190.321335,267.549164,194.087296,270.546265,199.825287C272.053925,202.711685,271.777954,202.992432,268.452606,201.955139C266.149017,201.236572,263.274414,199.751923,261.333893,198.278564C259.429016,196.832245,255.817871,193.307831,253.550903,190.682495C250.532196,187.186569,250.841736,184.599548,250.841736,213.326187C250.841736,226.946808,250.923004,238.090942,251.022324,238.090942C251.121643,238.090942,251.714981,237.562378,252.34082,236.916351C254.033813,235.168777,255.303955,234.420532,256.56189,234.429718C257.733398,234.438278,258.373962,234.85141,258.953552,235.972229C259.447998,236.928391,259.422302,237.81546,258.874084,238.7146C258.141785,239.915588,256.021576,241.246185,254.223953,241.632874C253.596054,241.767944,253.321152,242.447693,253.894424,242.447693C254.375366,242.447693,255.416626,243.672958,255.661621,244.527176C256.086487,246.008606,255.845993,249.131149,254.850464,255.059387C254.533325,256.947815,253.77182,259.266724,251.989014,263.772919C251.265518,265.601593,250.551636,267.475647,250.402588,267.937408C249.977386,269.254944,249.586304,269.191589,249.008423,267.711487zM323.448975,239.349457C323.632202,238.871918,321.945801,236.693604,320.520905,235.567261C318.740875,234.160248,317.110382,234.440582,317.110382,236.153656C317.110382,237.413666,318.891815,238.69487,321.581787,239.369522C323.119873,239.75528,323.293945,239.753403,323.448975,239.349457zM285.42514,225.945587C285.318054,225.28656,283.463928,223.147797,282.154755,222.173141C280.799286,221.164001,279.90976,221.136627,279.206818,222.082428C278.801544,222.627716,278.782928,222.780365,279.044678,223.412292C279.414764,224.305756,280.871429,225.323868,282.499481,225.826965C283.185486,226.038956,283.849945,226.245667,283.976044,226.286346C284.102173,226.326996,284.496277,226.368408,284.851868,226.378372C285.371277,226.392914,285.484009,226.307816,285.42514,225.945587zM290.463379,226.158279C293.784912,225.39209,295.788788,223.207993,294.488464,221.771133C293.533813,220.716263,291.588928,221.772186,289.304474,224.585663C287.913696,226.298508,288.195801,226.681335,290.463379,226.158279zM248.548691,240.418365C248.548691,240.050171,247.11293,238.204651,246.054214,237.212006C244.870285,236.101974,243.645554,235.492767,243.005966,235.69577C242.440063,235.875397,241.838104,237.079559,242.02301,237.66214C242.236572,238.335022,243.359161,239.33725,244.359314,239.747925C244.834778,239.943161,245.481766,240.210754,245.797058,240.34256C246.492859,240.633484,248.548691,240.690125,248.548691,240.418365zM254.412399,240.231689C257.42865,239.213165,258.622162,237.631317,257.474884,236.172791C256.923584,235.471954,256.590546,235.429871,255.609665,235.937088C254.148773,236.692551,251.060394,240.067596,251.46225,240.469452C251.73175,240.738953,253.279633,240.614197,254.412399,240.231689zM329.804047,238.989777C331.273468,238.442413,332.338654,237.693542,332.829346,236.862885C333.20932,236.219604,333.208923,236.150726,332.820923,235.430267C332.167725,234.217377,331.299866,234.24469,329.596954,235.531769C328.189911,236.595215,326.405701,238.859512,326.592072,239.3452C326.758667,239.779297,328.075928,239.633514,329.804047,238.989777zM336.758148,203.134979C341.024048,202.231003,343.022797,201.179108,345.7388,198.408737C347.972229,196.1306,347.934082,195.784637,345.528259,196.497467C342.751038,197.320313,339.683472,199.088821,336.314514,201.809326C334.865417,202.979507,334.473755,203.466156,334.981049,203.466156C335.098907,203.466156,335.89859,203.317123,336.758148,203.134979zM338.967163,219.804001C339.118805,219.543243,338.518982,215.157623,338.206635,214.243408C337.644714,212.598877,336.856812,211.107651,335.828827,209.743088C334.827942,208.414505,332.976746,206.552887,332.818604,206.715897C332.727356,206.809937,333.673615,210.450195,334.272766,212.310089C334.949066,214.409348,336.241272,216.99649,337.398956,218.569107C338.38446,219.907837,338.742676,220.189926,338.967163,219.804001zM356.779846,221.830719C356.779846,221.504944,355.21936,217.939514,354.832123,217.380524C353.772705,215.851257,351.978577,214.383209,350.015381,213.439301C348.069275,212.503586,346.461182,211.978012,346.461182,212.277649C346.461182,212.538315,350.183838,217.807419,350.894043,218.552032C352.567261,220.306229,356.779846,222.652863,356.779846,221.830719zM321.000366,211.205139C320.983002,210.108795,319.950867,206.600983,319.229309,205.185928C318.005981,202.786926,315.415131,199.894104,312.839142,198.050919C311.636597,197.190475,310.919189,196.841537,310.919189,197.117096C310.919189,197.156372,311.410706,198.265625,312.011414,199.582092C314.423035,204.867081,316.308655,207.742599,318.99115,210.226212C319.879181,211.04837,320.696381,211.721069,320.807129,211.721069C320.917908,211.721069,321.004852,211.488892,321.000366,211.205139zM312.906372,190.804367C316.877258,188.159164,319.306305,184.991791,320.760681,180.562775C321.783752,177.447113,321.737366,177.309479,320.06839,178.509842C317.449188,180.393677,314.914581,183.622269,312.616455,188.002213C311.892578,189.381775,311.114441,190.780121,310.887238,191.10965C310.504303,191.665024,310.523499,192.000977,310.938171,192.000977C311.032715,192.000977,311.918396,191.462509,312.906372,190.804367zM296.931702,205.385651C296.931702,204.969894,295.641663,201.742432,294.839111,200.150345C293.202942,196.90451,291.408569,194.915787,288.119446,192.702881C286.143768,191.373657,283.846252,190.148849,283.606506,190.297028C283.412415,190.416977,284.816681,192.760864,287.504944,196.804001C289.492249,199.792938,292.618164,203.102615,294.836761,204.566803C296.179382,205.452881,296.931702,205.746948,296.931702,205.385651zM286.348236,185.558014C288.016266,184.64415,291.063934,182.511627,292.196655,181.465714C293.552338,180.213943,295.005249,178.160248,295.993591,176.09874C297.068665,173.856339,298.009033,171.218094,297.805695,171.014755C297.428223,170.637299,293.905029,173.251328,291.861145,175.425308C290.377655,177.00325,287.8591,180.429855,286.840912,182.2556C286.55957,182.760071,285.879364,183.869324,285.329315,184.720612C284.17041,186.514252,284.343384,186.656403,286.348236,185.558014zM268.809723,199.498535C267.687317,197.27298,265.473907,194.300995,263.686554,192.619598C262.283478,191.299667,261.351288,190.668549,259.297058,189.647842C256.129578,188.073959,252.44429,186.831757,252.448395,187.339371C252.450714,187.626816,255.202652,190.635117,258.291046,193.726303C259.854919,195.291611,261.888275,197.051834,262.994812,197.798248C264.889923,199.076614,268.899414,200.998718,269.241028,200.792633C269.334381,200.736328,269.140289,200.153992,268.809723,199.498535zM254.777115,184.788467C256.74118,184.276886,259.98996,182.803085,261.786835,181.608536C264.33136,179.916931,266.541168,177.313416,269.168732,172.911469C269.624298,172.148254,269.640259,172.035553,269.310699,171.909088C268.587372,171.631516,265.462952,173.105591,262.765503,174.99704C260.692596,176.450562,253.043518,184.173889,252.706345,185.153854C252.655914,185.30043,252.797012,185.343735,253.05661,185.261337C253.295715,185.185455,254.069931,184.972656,254.777115,184.788467zM231.165894,185.014267C234.432068,183.918457,236.611481,182.594513,238.915588,180.306519C240.855667,178.37999,243.962631,174.097885,243.962631,173.35051C243.962631,172.882233,244.097961,172.873978,242.345612,173.449249C238.453598,174.726929,234.972687,177.142853,230.032455,181.995224C227.983063,184.008179,226.306274,185.753418,226.306274,185.873535C226.306274,186.248383,228.803665,185.806793,231.165894,185.014267zM244.042389,200.770981C244.183594,200.54248,241.949188,197.137939,240.398041,195.218109C238.546768,192.926819,236.207245,191.085373,233.622101,189.884735C230.537735,188.45224,225.65152,187.187454,225.990036,187.90918C226.25415,188.47229,234.425003,196.13591,235.707718,197.02359C237.480728,198.250595,240.197647,199.705353,241.923203,200.351624C243.544739,200.958954,243.884628,201.026215,244.042389,200.770981z"/>
</svg>
