<?xml version="1.0" encoding="UTF-8" standalone="no"?>
<svg xmlns="http://www.w3.org/2000/svg" xmlns:xlink="http://www.w3.org/1999/xlink" width="158.711mm" height="120.000mm" viewBox="208.644501 155.000015 158.711029 119.999985">
    <path style="stroke:none;fill:#000000;fill-rule:evenodd" d="M216.31929,274.760498C216.254181,274.59082,216.229599,273.463684,216.264694,272.255798L216.328476,270.05957L226.95108,269.948975L237.5737,269.838379L239.04216,268.790344C240.883438,267.476227,242.234756,265.904419,243.432312,263.68396C244.147415,262.358032,244.30484,261.892609,244.105667,261.693207C243.920212,261.507538,241.553619,261.401276,235.847198,261.322388L227.848663,261.211761L227.315155,259.773987C226.303696,257.048157,225.96936,256.105591,224.059082,250.594421C223.004883,247.552979,221.500702,243.223083,220.716461,240.972427C219.932236,238.721771,218.757599,235.337494,218.106171,233.451797C217.454742,231.566101,216.273056,228.181824,215.480209,225.931168C214.687347,223.680511,213.427063,220.097137,212.67955,217.96814C210.090637,210.594498,209.842239,209.889984,209.49176,208.926636C208.781937,206.97554,209.01532,206.630524,211.226593,206.362106C211.948624,206.27446,212.784302,206.109634,213.083679,205.995804L213.627975,205.788864L213.48111,201.980026C213.33252,198.126755,212.976151,193.301849,212.768784,192.335724C212.662109,191.838684,212.589417,191.816727,211.482269,191.946838L210.308807,192.084763L210.156509,190.040497C210.072739,188.916138,209.859436,187.367935,209.68251,186.600021C209.505585,185.832123,209.358963,184.687439,209.356674,184.056274C209.354385,183.425125,209.1595,181.418884,208.923584,179.597946C208.408218,175.619995,208.341141,175.763214,211.105713,174.938675C212.153366,174.626205,213.134277,174.329163,213.285492,174.27858C213.476089,174.214813,213.384293,173.929825,212.986298,173.349579C212.443253,172.557922,212.417938,172.398712,212.519058,170.411209C212.6427,167.981033,213.121521,166.484573,215.120056,162.282303C216.322037,159.754898,216.450638,159.573151,217.032166,159.57988C218.986465,159.602509,222.598312,161.639099,225.59169,164.406281C227.868103,166.510651,228.872162,167.207779,229.358063,167.021332C229.50708,166.964142,230.009735,165.98645,230.475067,164.848663C232.333557,160.304489,235.098892,155.626617,236.231888,155.110397C236.661087,154.914841,236.88504,154.963257,237.490387,155.382507C239.147003,156.529846,242.064651,158.955338,243.242401,160.164276C244.424194,161.377335,245.63681,163.271545,245.63681,163.90451C245.63681,164.060959,245.727295,164.426956,245.837891,164.71785L246.038986,165.246735L247.987442,164.757675C249.059082,164.488693,250.042267,164.309433,250.172272,164.359329C250.394745,164.444702,252.277908,169.37326,254.253815,175.041382C255.166519,177.659576,255.165817,178.153046,254.24939,178.153046C254.028152,178.153046,253.789459,178.246384,253.718948,178.360458C253.528137,178.669205,256.369965,186.499771,258.841492,192.475418C259.076904,193.044617,259.29422,192.716034,259.426636,191.590637C259.543518,190.597382,260.393127,186.10321,261.674225,179.701401C261.856812,178.788971,262.113922,177.24881,262.245575,176.278809C262.544403,174.076721,262.723816,173.729141,263.561401,173.729141C263.922089,173.729141,264.217194,173.631622,264.217194,173.512436C264.217194,173.009903,266.958282,172.062317,269.636475,171.639038C270.123108,171.562119,271.69519,171.420898,273.129974,171.325211L275.738708,171.15123L276.830017,170.007034C277.430237,169.377731,278.048004,168.865036,278.20282,168.867706C279.222931,168.885315,281.810669,170.582855,284.160095,172.77562C284.970337,173.531815,286.073914,174.357651,286.612488,174.610825C287.558533,175.055511,287.657318,175.059723,289.520782,174.734756C290.581726,174.549744,292.663361,174.334473,294.146637,174.256393C296.582977,174.128128,296.892517,174.154556,297.351166,174.53006C297.930634,175.00444,297.968689,175.273682,297.740173,177.281891L297.575012,178.733292L298.824158,179.874908C300.093689,181.035202,301.161407,181.48819,304.142883,182.131409C304.75119,182.26265,305.725006,182.525223,306.306976,182.71492L307.365051,183.059814L307.241211,184.200851C307.173096,184.828415,306.978333,186.187943,306.808441,187.222031C306.63855,188.256119,306.288177,190.396179,306.029877,191.977722C305.771606,193.559265,305.373596,195.948181,305.145386,197.286407C304.917236,198.624634,304.526855,200.914001,304.277924,202.373901C303.817749,205.072571,303.233734,208.520386,302.460693,213.101852C302.22464,214.500916,301.922455,216.272537,301.789185,217.038788C301.655914,217.805054,301.616333,218.501434,301.701202,218.586304C301.925415,218.810532,305.206573,218.926086,306.374786,218.7509C307.13678,218.636627,307.418518,218.480957,307.566162,218.092545C307.841187,217.369232,308.750977,216.718567,310.253204,216.170822L311.552917,215.696915L311.553772,214.454681C311.55481,212.85379,311.984802,212.1548,313.912994,210.619461C316.881348,208.255859,318.091797,207.885056,319.519775,208.901871C320.52063,209.614532,320.828491,210.538132,320.974274,213.265335C321.04425,214.574478,321.13913,215.768341,321.18512,215.918365C321.354919,216.472076,321.983582,215.884155,322.864349,214.348053C324.335693,211.781891,326.336304,208.795868,327.028656,208.132568C327.403198,207.773712,327.81308,207.567978,328.005981,207.641998C328.188721,207.712112,328.802765,208.574905,329.370575,209.559296C330.819946,212.072113,330.783264,212.045807,332.58963,211.867813C334.561676,211.673492,335.279785,211.963501,335.875946,213.195038C336.215302,213.896027,336.326782,214.567276,336.326782,215.909546C336.326782,217.297165,336.407806,217.760132,336.692017,217.996368C336.96405,218.222473,338.191772,218.328156,341.502991,218.410538L345.948761,218.521133L346.010773,221.492676C346.044861,223.127029,346.1698,224.581146,346.288391,224.72403C346.416504,224.878418,347.572449,225.046341,349.136719,225.137848C352.492981,225.334152,353.888947,225.661133,353.976318,226.271423C354.011841,226.519409,353.635223,227.745667,353.139404,228.996429C352.643616,230.247208,352.071533,231.811127,351.868073,232.471786C351.664612,233.132446,351.419128,233.672989,351.32251,233.672989C351.225891,233.672989,351.146851,233.776306,351.146851,233.902557C351.146851,234.114151,349.303375,238.938873,348.234253,241.525421C347.982819,242.133698,347.591492,243.079315,347.364563,243.62677C347.137695,244.174225,346.394287,246.065445,345.712585,247.829468C343.322388,254.014709,342.491028,256.134644,341.982544,257.340851C341.70047,258.009979,341.289551,259.076416,341.069366,259.710693C340.849182,260.345001,340.513214,260.93576,340.322754,261.023468C340.132324,261.111206,337.069763,261.239227,333.51712,261.307983C329.182495,261.391846,326.976013,261.514832,326.809296,261.681885C326.625458,261.866089,326.769836,262.345764,327.364685,263.527008C328.353088,265.489685,331.013184,268.273315,332.787659,269.201813L334.004211,269.838379L341.30365,269.809875C349.282043,269.778717,356.019226,269.419708,357.334595,268.955627C360.614807,267.798279,362.648987,264.416992,362.648987,260.121826C362.648987,255.991455,360.54364,253.405487,357.008514,253.193726C354.712708,253.056213,353.272614,254.284302,353.303894,256.352905C353.335022,258.414398,354.451172,259.312256,357.269257,259.542755C359.429016,259.719421,359.581787,259.928925,358.367188,261.048492C356.674805,262.608521,354.222168,262.892517,351.921021,261.794983C348.870239,260.339905,347.536163,256.108856,349.137207,252.965942C350.278687,250.725128,352.126953,249.30127,354.78772,248.612915C356.449829,248.182938,357.07019,248.185303,358.874512,248.628448C360.753967,249.090057,362.465515,250.044647,363.942993,251.455292C365.38269,252.829865,366.053833,253.84491,366.792755,255.765198C367.289032,257.054932,367.356384,257.561157,367.35553,259.995209C367.354431,263.037537,366.934875,264.935455,365.739319,267.306122C364.283447,270.192932,361.674561,272.432007,358.584961,273.446228C355.551697,274.441986,349.795013,274.531464,277.599487,274.705109C251.92981,274.766846,227.667175,274.873962,223.68251,274.943176C217.60553,275.048737,216.418594,275.019287,216.31929,274.760498zM290.48877,189.475311C290.542664,189.313675,290.441528,189.264236,290.226105,189.346909C290.033447,189.420837,289.875824,189.578506,289.875824,189.697281C289.875824,189.988022,290.37854,189.805969,290.48877,189.475311zM239.553955,181.913361C239.727997,181.631729,239.215546,181.631729,238.77977,181.913361C238.510025,182.087677,238.538605,182.128403,238.932617,182.131165C239.199158,182.133026,239.47876,182.035019,239.553955,181.913361zM285.07547,228.888214C285.29422,228.669464,284.809357,227.921921,284.448761,227.921921C284.057159,227.921921,284.024078,228.396362,284.390198,228.762451C284.687897,229.060181,284.870087,229.093613,285.07547,228.888214zM276.972229,187.760162C277.159851,187.271225,276.736694,186.928955,276.167847,187.109497C275.709442,187.25499,275.704834,187.281799,276.069275,187.684464C276.533569,188.19751,276.795959,188.219498,276.972229,187.760162zM261.117432,200.991425C261.110382,200.604034,260.836548,199.830414,260.707581,199.833542C260.630524,199.835403,260.422119,199.928864,260.244476,200.041229C259.968048,200.21608,259.980957,200.311264,260.334045,200.701431C260.749512,201.160507,261.123047,201.298782,261.117432,200.991425zM329.925812,229.987244C330.228485,229.191162,329.804077,228.723663,329.344238,229.346664C329.169952,229.582825,329.027344,229.956085,329.027344,230.176147C329.027344,230.787811,329.673035,230.652069,329.925812,229.987244zM322.127136,218.244644C322.069031,217.339325,321.989014,217.183945,321.548767,217.121552C321.071625,217.053909,321.04718,217.105103,321.178894,217.895721C321.387238,219.145996,321.458191,219.295319,321.843689,219.295319C322.124237,219.295319,322.18103,219.084808,322.127136,218.244644zM229.452606,169.984299C229.554108,169.291107,229.334839,168.518509,228.918427,168.102097C228.157166,167.340836,228.01207,168.380066,228.648911,170.032455C228.922928,170.743423,229.345154,170.718109,229.452606,169.984299zM277.16333,180.056946C278.011505,179.644196,278.904541,179.139374,279.147858,178.935089C279.575134,178.57637,279.563812,178.56813,278.816071,178.693909C277.584351,178.901093,275.143463,179.901443,274.715332,180.374527C274.33493,180.794861,274.342377,180.807373,274.972412,180.807373C275.329254,180.807373,276.315186,180.469681,277.16333,180.056946zM292.312622,183.767395C291.674652,182.471512,290.91095,181.689285,290.593567,182.006683C290.42746,182.17276,291.343567,184.136658,292.194427,185.438538L292.854065,186.447845L292.930573,185.812943C292.977814,185.420776,292.741577,184.638718,292.312622,183.767395zM215.571991,191.884827C217.487244,189.969574,217.389084,189.845428,214.835403,190.953232C213.830841,191.389023,213.784729,191.448181,213.784729,192.301666C213.784729,192.793365,213.892029,193.194305,214.023621,193.194305C214.155014,193.194305,214.851776,192.605042,215.571991,191.884827zM333.88916,219.16893C335.01767,218.662476,336.003113,217.96814,335.593384,217.96814C334.775635,217.96814,329.795013,219.537476,329.469727,219.897644C329.408905,219.964981,330.0802,219.962387,330.961517,219.891876C331.99646,219.809052,333.033203,219.553055,333.88916,219.16893zM227.65712,184.685791C227.544571,183.595245,226.928131,181.746735,226.739807,181.935059C226.690506,181.984344,226.536865,182.85228,226.398376,183.86377C226.259872,184.875275,226.095139,185.836884,226.032288,186.000656C225.939102,186.243515,226.089294,186.254974,226.846466,186.06279L227.774918,185.827118L227.65712,184.685791zM286.367188,178.377686C286.896301,177.38765,286.922455,175.761032,286.412445,175.565308C285.59787,175.252731,284.435913,177.800339,284.87323,178.940018C285.097229,179.523788,285.920227,179.214005,286.367188,178.377686zM283.23996,173.027954C280.983582,171.038635,278.311462,169.500168,277.873413,169.938202C277.72644,170.085205,278.131042,170.506058,279.083405,171.196716C280.651917,172.334259,283.948883,174.173431,284.124756,174.008957C284.185577,173.952072,283.787415,173.51062,283.23996,173.027954zM312.387665,233.056946C312.439972,229.758423,312.401062,229.221146,312.101624,229.106232C311.911011,229.033096,311.684692,229.043304,311.598694,229.128967C311.39212,229.334686,311.257294,235.308228,311.437561,236.269043C311.539978,236.815033,311.67981,236.998962,311.952637,236.946564C312.284393,236.882858,312.334015,236.439056,312.387665,233.056946zM303.368713,232.993195C303.368713,229.343857,303.335815,229.001801,302.991272,229.068146C302.413208,229.179474,302.212708,230.581024,302.327698,233.706299C302.434692,236.614258,302.517517,236.990921,303.049988,236.990921C303.315735,236.990921,303.368713,236.326492,303.368713,232.993195zM296.624756,176.161346C297.344635,175.88765,297.322906,175.545334,296.566956,175.250565C295.860687,174.975159,291.36908,175.171616,289.98642,175.538391C289.134827,175.764267,289.122131,175.780792,289.647461,175.978363C291.163208,176.548416,295.319916,176.65744,296.624756,176.161346zM321.146088,236.493225C321.219452,236.219513,321.280823,234.474457,321.282471,232.615387C321.285034,229.770966,321.231415,229.214447,320.944183,229.104218C320.756439,229.032181,320.559723,229.016357,320.507019,229.069061C320.319733,229.256348,319.932465,235.565308,320.06488,236.272034C320.225769,237.1306,320.93634,237.27597,321.146088,236.493225zM234.926895,160.409744C236.370438,158.282654,237.116211,156.562943,236.809967,156.067444C236.621185,155.761978,235.843262,156.54776,234.872665,158.024292C234.168961,159.094833,231.69722,164.042084,231.70813,164.3582C231.7202,164.70816,233.449005,162.587448,234.926895,160.409744zM225.830399,165.710815C224.492325,164.112335,221.320679,161.903152,219.013168,160.962341C216.712173,160.02417,217.173477,160.814072,220.058884,162.75293C222.115494,164.134872,225.970001,166.423752,226.246613,166.427307C226.348663,166.428635,226.161377,166.106201,225.830399,165.710815zM316.813934,216.825439C315.772156,215.326141,313.38269,212.65947,313.081024,212.65947C312.976135,212.65947,312.725952,212.910309,312.525055,213.216904C312.185181,213.735596,312.185669,213.841995,312.531616,214.74791C312.944183,215.828171,313.669128,216.465225,315.64505,217.483871C317.720703,218.553925,317.93219,218.434799,316.813934,216.825439zM332.400543,225.514832C333.20459,224.746033,332.081299,223.971222,328.060974,222.521561C326.950104,222.121002,325.643066,221.727646,325.156433,221.647446L324.271637,221.501617L325.598816,222.741821C327.016296,224.066422,328.226532,224.861694,330.015198,225.643951C331.187103,226.156479,331.762024,226.125351,332.400543,225.514832zM313.606079,226.07135C314.597687,225.65033,319.69342,220.350754,318.77774,220.69281C318.554199,220.776321,318.005554,220.903107,317.558563,220.974594C317.111572,221.046082,315.902985,221.522736,314.872833,222.033829C313.469299,222.730148,312.848877,223.182602,312.397675,223.838837C311.752686,224.776947,311.432617,225.778717,311.660187,226.146957C311.856323,226.464294,312.763641,226.429047,313.606079,226.07135zM334.211731,223.917175C335.682098,222.906342,336.262268,221.35936,335.516449,220.438309C335.069336,219.886139,335.055359,219.88736,332.124084,220.734619C331.285858,220.976898,330.240051,221.065735,328.761475,221.020264C327.581116,220.983978,326.685272,221.016693,326.770691,221.092987C326.85611,221.169281,327.47345,221.404175,328.142578,221.614975C329.880463,222.162506,332.400574,223.390503,332.885132,223.925934C333.393463,224.48761,333.381897,224.487701,334.211731,223.917175zM301.37796,232.996063L301.37796,229.00119L300.548462,229.069839L299.718994,229.138489L299.229065,231.903442C298.959595,233.424149,298.671936,235.190948,298.589813,235.829651L298.440521,236.990921L299.909241,236.990921L301.37796,236.990921L301.37796,232.996063zM318.882355,227.769043C319.181885,227.469513,319.402832,226.690567,319.640045,225.097961C319.824219,223.86145,320.116821,222.378143,320.290283,221.801727C320.463776,221.225342,320.57135,220.719376,320.529358,220.677399C320.419922,220.567932,316.342682,224.983734,315.518738,226.104111C315.125275,226.63916,314.882446,227.190643,314.955963,227.382233C315.325317,228.344818,318.039246,228.612167,318.882355,227.769043zM299.807556,188.162109L299.82959,186.779648L301.654449,186.77626C302.658142,186.774399,303.620758,186.68335,303.79361,186.573944C304.257843,186.280121,303.749146,185.609177,301.558289,183.625793C298.715149,181.05188,298.004883,180.560471,299.817627,182.421509C300.72348,183.351471,301.420227,184.151566,301.365997,184.199478C301.022522,184.502792,300.235199,184.76535,299.276611,184.896255C297.544739,185.132736,297.422546,185.20343,297.145111,186.129425C296.755737,187.429077,297.160919,188.525482,298.449951,189.66011C299.479126,190.566055,299.496735,190.572006,299.640045,190.062134C299.720032,189.777481,299.79541,188.92247,299.807556,188.162109zM296.249878,186.725021C296.535767,184.403183,296.741638,184.125305,298.176056,184.125305C298.679962,184.125305,299.155151,184.062454,299.231964,183.985626C299.45874,183.758835,298.962799,182.980164,297.876923,181.858093L296.860168,180.807434L295.909729,181.740204C295.025543,182.607971,294.882385,182.669632,293.855347,182.624939C293.248138,182.598511,292.751343,182.615509,292.751343,182.662689C292.751343,182.709869,293.061829,183.411957,293.441315,184.222885C294.000244,185.417328,294.104401,185.865448,293.989716,186.582687C293.864807,187.363708,293.924896,187.544815,294.499298,188.119232C294.857452,188.477371,295.341187,188.770401,295.574249,188.770401C295.943146,188.770401,296.03067,188.505371,296.249878,186.725021zM259.56311,199.286743C259.960693,198.86351,260.043121,198.590805,259.935699,198.053741C259.763977,197.195114,258.066162,192.941086,257.776306,192.643143C257.637024,192.5,256.751465,193.259155,255.227295,194.828278C253.485107,196.621857,252.967606,197.281097,253.19046,197.423004C253.354797,197.527649,254.142044,197.821274,254.939911,198.075531C255.737793,198.329803,256.932251,198.82254,257.594269,199.170517C258.256287,199.518494,258.855225,199.809265,258.925262,199.816681C258.9953,199.824097,259.282318,199.585617,259.56311,199.286743zM270.305756,178.45697L271.074463,176.770142L270.167084,175.126373C269.625183,174.144684,269.304962,173.309525,269.37207,173.052887C269.457367,172.726807,269.370941,172.623169,269.013733,172.623169C268.235626,172.623169,265.544373,173.550827,265.544373,173.819031C265.544373,173.956253,265.992249,174.580536,266.539673,175.206314L267.534973,176.344116L266.650269,177.90538C265.390167,180.12912,265.396729,180.143799,267.651306,180.143799L269.537048,180.143799L270.305756,178.45697zM242.892883,185.141678C245.253647,182.780914,247.185181,180.742523,247.185181,180.611923C247.185181,180.172348,246.060471,180.865585,245.726807,181.510818C245.361603,182.217026,245.08551,182.29895,242.650681,182.423615C240.337555,182.542053,238.433533,183.109329,237.968857,183.818512C237.257935,184.903534,237.567764,189.43399,238.352905,189.43399C238.48912,189.43399,240.532104,187.502441,242.892883,185.141678zM325.135284,234.726471C327.442688,232.335617,328.1297,231.221436,328.137695,229.857376L328.142578,229.027893L325.267029,229.027893L322.391479,229.027893L322.391479,233.009399C322.391479,236.045654,322.457123,236.991577,322.667969,236.993729C322.820068,236.99527,323.930328,235.975006,325.135284,234.726471zM273.65506,180.420288C274.05011,179.611832,275.444824,178.684967,276.854004,178.294464C277.338348,178.160233,277.294556,178.102951,276.279236,177.542816C274.767212,176.708633,274.449524,176.085693,274.76593,174.575287C274.901642,173.927414,274.930206,173.310165,274.829407,173.203613C274.633636,172.996628,270.732361,173.112534,270.513031,173.331848C270.441193,173.403687,270.775391,174.243454,271.255676,175.198013L272.128937,176.933563L271.141418,178.775253C270.598297,179.788177,270.208557,180.759323,270.27536,180.93335C270.363281,181.162521,270.790131,181.249771,271.823273,181.249771L273.249756,181.249771L273.65506,180.420288zM294.956024,181.33255C296.138062,180.337921,297.112244,177.865814,296.480011,177.46521C296.314941,177.360611,295.184509,177.271515,293.967926,177.267197C291.888702,177.259827,289.818756,177.052963,288.542053,176.724945C288.05481,176.599747,287.94754,176.677658,287.712555,177.327499C287.311066,178.437775,287.372101,178.717926,288.159912,179.380798C288.89978,180.003357,289.903503,180.500519,292.198364,181.381058C293.903625,182.035385,294.125397,182.031479,294.956024,181.33255zM244.831207,268.617401C246.917511,266.363953,248.097961,264.267395,248.422226,262.239563L248.568893,261.322388L247.342133,261.322388C246.667419,261.322388,245.950943,261.385468,245.749954,261.462585C245.548981,261.539734,245.000488,262.434082,244.531113,263.450073C243.814331,265.001526,241.409729,268.381165,241.002899,268.408905C240.935928,268.413483,240.482971,268.760376,239.996338,269.17981L239.111557,269.942383L241.35498,269.945679L243.598404,269.948975L244.831207,268.617401zM331.902893,269.88385C331.902893,269.848022,331.386627,269.424988,330.755676,268.943817C329.225189,267.776642,327.227295,265.22345,326.242798,263.176544C325.802429,262.261047,325.317627,261.464233,325.165405,261.405823C325.013184,261.347412,324.290161,261.32959,323.558655,261.366272L322.228668,261.432983L322.536926,262.649536C323.054718,264.69281,323.8974,266.11441,325.752289,268.073975L327.52713,269.948975L329.715027,269.948975C330.918335,269.948975,331.902893,269.919678,331.902893,269.88385zM290.669373,188.197815C292.330322,187.357452,292.408722,187.218582,291.729523,186.319458C291.415253,185.903442,290.736725,184.667236,290.221649,183.572327C288.886108,180.733276,287.158997,179.26358,286.330872,180.261398C285.759186,180.950241,286.423126,185.919144,287.419922,188.411713C287.655121,188.999893,287.742645,189.039276,288.568298,188.928543C289.059875,188.86261,290.005371,188.533783,290.669373,188.197815zM327.287689,219.37674C327.940338,219.178207,329.469727,218.686172,330.68631,218.283325C331.902893,217.880493,333.393433,217.440247,333.998627,217.305054C334.603851,217.16983,335.174683,216.940216,335.26712,216.7948C335.359558,216.649368,335.436737,215.900604,335.438599,215.13089C335.44165,213.87677,335.374847,213.664246,334.79541,213.084839C333.998688,212.288086,333.424927,212.2742,331.937042,213.015656C331.02182,213.471741,330.220154,214.238556,328.12146,216.665375C326.660156,218.355164,325.607727,219.737701,325.782776,219.737701C325.957794,219.737701,326.63501,219.575272,327.287689,219.37674zM320.179535,214.904129C320.179535,211.393814,320.150238,211.133041,319.67688,210.430618C319.400391,210.02037,318.910553,209.536713,318.588287,209.355835C318.077026,209.068878,317.922638,209.067383,317.376709,209.344025C316.898132,209.586533,314.46405,211.187378,313.778229,211.710663C313.724731,211.75148,314.134247,212.255386,314.688263,212.83046C315.242279,213.405518,316.412964,214.796112,317.289795,215.920654C318.769409,217.818207,319.58493,218.631729,320.007568,218.631729C320.102142,218.631729,320.179535,216.9543,320.179535,214.904129zM325.906616,217.805359C326.440887,217.225769,327.618591,215.878967,328.523773,214.812469L330.169525,212.873383L329.132843,210.941559C328.562683,209.879059,328.019714,208.927811,327.926239,208.827667C327.748047,208.63678,326.488922,210.064774,325.78772,211.253021C322.961975,216.041321,322.944305,216.077789,322.960754,217.083374C322.998596,219.399933,324.171722,219.687439,325.906616,217.805359zM283.718994,177.544754C283.898499,177.331848,284.153168,176.785324,284.284912,176.330246L284.524475,175.502823L282.499756,174.364243C280.123413,173.027939,278.711456,172.104019,277.895782,171.351608L277.307281,170.808762L276.966553,171.328873C276.430298,172.147415,275.498138,174.780518,275.498138,175.476669C275.498138,176.248627,275.693359,176.411407,277.378296,177.044479C279.720337,177.924423,283.169403,178.196548,283.718994,177.544754zM277.995392,185.642532C280.661316,184.287003,282.253632,182.797394,283.452515,180.537445C284.18634,179.154205,283.994659,178.81662,282.475403,178.81662C281.420715,178.81662,281.000885,178.962067,279.390869,179.885239C277.560577,180.934692,276.224243,181.512253,274.982483,181.790482C274.383942,181.924591,274.362885,181.972,274.506683,182.862152C274.589447,183.374405,274.952332,184.260162,275.31311,184.830521C276.228882,186.278168,276.552582,186.37616,277.995392,185.642532zM275.15625,215.479706C275.877319,211.179718,276.208374,208.415344,276.023438,208.238892C275.741425,207.969833,267.747314,206.401276,267.568665,206.579926C267.515839,206.632736,267.909729,207.229553,268.44397,207.906204C270.137512,210.051208,272.923035,213.71376,273.822571,214.97821C274.300049,215.649414,274.768341,216.198578,274.86322,216.198578C274.958069,216.198578,275.089966,215.875092,275.15625,215.479706zM272.229431,211.65155C271.113007,210.869568,271.993469,208.939224,273.343445,209.209213C273.714569,209.283447,274.15213,209.455292,274.315796,209.591125C274.684998,209.897552,274.707153,211.371216,274.347931,211.730438C273.974579,212.10379,272.813354,212.060547,272.229431,211.65155zM273.728577,210.694504C273.728577,210.199799,272.95578,209.935455,272.635986,210.32077C272.482819,210.505356,272.494232,210.67305,272.672119,210.850922C273.082733,211.261536,273.728577,211.165909,273.728577,210.694504zM312.262878,222.72052C313.149017,221.736115,314.562866,220.963043,316.912445,220.178253C317.731171,219.90477,318.347412,219.594238,318.28186,219.488159C318.216309,219.382095,318.059113,219.295319,317.932556,219.295319C317.555115,219.295319,313.168396,217.149658,313.004852,216.885071C312.579315,216.196518,309.421692,217.144104,308.682495,218.182175C308.436401,218.527817,308.235016,219.064453,308.235016,219.374695C308.235016,220.13797,309.123474,222.535019,309.89325,223.848541L310.521362,224.920319L310.981842,224.276169C311.235107,223.921875,311.811584,223.221832,312.262878,222.72052zM310.44696,233.002991L310.44696,229.01506L307.516113,229.076782L304.585297,229.138489L304.524475,232.882339C304.47821,235.729401,304.531189,236.669067,304.745667,236.805176C304.900757,236.903595,306.247009,236.985657,307.737305,236.987518L310.44696,236.990921L310.44696,233.002991zM319.139221,236.769714C319.194885,236.708893,319.277557,234.96698,319.322906,232.898804L319.405365,229.138489L316.363922,229.07695L313.32251,229.015411L313.32251,233.020752L313.32251,237.026062L316.180237,236.953186C317.752014,236.913116,319.083527,236.830551,319.139221,236.769714zM314.049072,227.772385C314.495117,227.496735,313.696625,227.177368,312.694397,227.23056C311.652771,227.285828,311.588562,227.25238,310.576569,226.126801C309.683777,225.133804,308.391052,222.790039,307.388123,220.345993L307.138519,219.737701L304.521698,219.737701C302.754547,219.737701,301.796051,219.827484,301.569641,220.014191C301.250732,220.277176,300.466309,224.041977,300.165588,226.752838L300.037628,227.906311L302.311462,227.993744C305.120056,228.101746,313.780426,227.938416,314.049072,227.772385zM252.639893,195.885391C253.228699,195.418976,254.489792,194.207809,255.442352,193.193924C257.076813,191.454224,257.166199,191.307495,257.030853,190.58606C256.848724,189.615234,255.026962,185.154007,254.7789,185.07132C254.561462,184.99884,243.949142,195.56488,244.098526,195.705093C244.241165,195.839005,249.786499,196.671738,250.759735,196.705414C251.389343,196.727203,251.807373,196.544876,252.639893,195.885391zM218.540421,203.834991C220.000305,203.124329,222.289673,201.928864,223.627914,201.178421C224.966141,200.427963,227.270477,199.22287,228.748642,198.500427L231.436249,197.18689L231.267593,196.439148C231.17485,196.027878,230.948013,195.253967,230.763519,194.719345C230.1492,192.939072,229.489578,190.62381,229.489578,190.247772C229.489578,190.043503,229.414185,189.876373,229.322021,189.876373C229.140503,189.876373,219.438675,199.608337,216.482483,202.755798C213.605438,205.818985,214.019104,206.035904,218.540421,203.834991zM228.592102,188.694687C228.770294,188.224899,228.759583,187.917389,228.549713,187.478119C227.933884,186.189087,226.2948,186.932648,225.341278,188.933594C224.559372,190.574371,224.034332,190.697418,222.830566,189.521973L221.975906,188.687408L220.707687,189.087189C219.584915,189.441116,219.113464,189.807068,216.596527,192.278366L213.753586,195.069763L213.889328,196.399292C214.261307,200.042526,214.484116,201.982239,214.587204,202.474976C214.689346,202.963104,215.395721,202.321472,221.527283,196.170914C225.281769,192.40477,228.460938,189.040466,228.592102,188.694687zM276.738037,205.470627C276.879089,204.619019,277.064819,203.212585,277.150879,202.3452L277.307251,200.768143L275.683807,200.41893C274.790924,200.226868,272.567322,199.809891,270.742432,199.49231C268.917603,199.174728,266.478912,198.732803,265.323181,198.510223C264.167419,198.287674,262.707245,198.04332,262.078339,197.967224L260.934875,197.828888L261.473297,199.313293C262.420319,201.92421,263.197174,202.952621,265.609344,204.788589C266.278503,205.297897,266.928284,205.509903,268.816681,205.835007C270.119171,206.05925,272.180206,206.432098,273.39679,206.663574C276.549622,207.263428,276.434357,207.304581,276.738037,205.470627zM216.69133,189.383804C219.350708,188.504608,221.52655,187.71759,221.52655,187.634857C221.52655,187.158356,220.168106,184.560913,219.979767,184.677307C219.856064,184.753769,219.362427,185.382492,218.882813,186.074478C218.403198,186.766464,217.664215,187.730789,217.240631,188.217407C216.591934,188.962677,216.406982,189.06366,216.067688,188.857819C215.748032,188.663895,215.651276,188.277466,215.598938,186.985687C215.534073,185.384491,216.261871,178.783157,216.670273,177.268265C217.026016,175.94873,216.93985,175.510635,216.273178,175.249298C215.55571,174.968048,213.313309,175.234497,211.185684,175.853806L209.803223,176.25621L209.802902,177.812912C209.802383,180.304672,210.919891,190.241608,211.263077,190.79689C211.451324,191.101486,211.6604,191.047058,216.69133,189.383804zM224.627502,188.37532C224.760498,187.923492,224.950012,187.056137,225.04866,186.447845C225.147293,185.839569,225.395264,184.346497,225.599701,183.129929C226.740417,176.341705,227.176392,172.969299,226.894806,173.112198C223.443176,174.863892,222.794037,175.089706,220.470337,175.347046C217.720108,175.651627,217.685471,175.684265,217.335007,178.301956C217.223816,179.132477,216.985916,180.807373,216.806366,182.023956C216.388428,184.855545,216.181427,187.88562,216.405914,187.88562C216.501724,187.88562,217.154709,187.04834,217.856995,186.025009C218.55928,185.001678,219.361618,183.950455,219.639954,183.688965L220.146042,183.213531L220.600143,183.790833C220.849899,184.108337,221.56015,185.353012,222.178467,186.556747C223.788696,189.691528,224.159134,189.966599,224.627502,188.37532zM335.221405,227.159302C338.082397,226.054382,341.007324,225.30426,343.12854,225.131439L344.953369,224.982788L344.953369,222.139053L344.953369,219.295319L340.505798,219.295319C336.79071,219.295319,336.077759,219.346161,336.176727,219.60408C337.044434,221.86528,336.885803,222.483505,334.900269,224.578293C332.97583,226.608597,331.742035,226.99118,329.395905,226.285095C327.582977,225.739487,324.062561,222.801971,322.940979,220.898987C322.707947,220.503601,322.392029,220.180084,322.238892,220.180084C321.638733,220.180084,320.863037,222.654388,320.411469,226.009064C320.282898,226.964355,320.112427,227.851578,320.032623,227.980682C319.930847,228.14537,321.874084,228.174194,326.544952,228.07724L333.202332,227.939056L335.221405,227.159302zM236.284302,196.283295C237.82753,196.035706,239.117691,195.805634,239.151321,195.772018C239.250809,195.672531,237.433243,190.042969,237.08075,189.358826C236.77771,188.77066,236.73172,188.753693,236.357941,189.091949C235.983215,189.431076,235.906219,189.393524,235.101456,188.479263C233.677948,186.862076,231.673813,181.660522,230.029633,175.315765C229.609482,173.694443,229.153671,172.158554,229.016739,171.902679C228.77887,171.458206,228.754669,171.455368,228.474152,171.838989C228.312683,172.059814,228.119278,172.699875,228.044388,173.261322C227.969513,173.822769,227.716751,175.372574,227.482712,176.705338L227.057205,179.12854L227.971069,182.235214C228.935913,185.515106,231.708267,194.498428,232.189407,195.903946C232.530029,196.898972,232.477036,196.894073,236.284302,196.283295zM236.071579,169.858566C239.029175,169.403717,241.846588,168.60965,243.091614,167.88002C244.547577,167.026764,245.119858,165.751022,244.745911,164.19223C244.593872,163.558472,244.087234,162.561386,243.546417,161.831543C242.181732,159.989929,238.158875,156.525497,237.96965,157.028915C237.92392,157.150574,237.437439,157.996643,236.888565,158.909073C235.925598,160.509903,235.060516,161.710251,231.867432,165.876312C230.356537,167.84758,230.16449,168.388992,230.513779,169.692337C230.636826,170.15152,230.77359,170.190018,232.281769,170.190018C233.180817,170.190018,234.88623,170.040863,236.071579,169.858566zM243.135742,195.007141C243.598892,194.634521,246.341858,191.958267,249.231186,189.059937L254.484512,183.790222L253.73912,181.911713C252.473755,178.722763,252.49884,178.76033,251.736389,178.912827C250.54985,179.150131,249.385513,180.13913,243.917328,185.554459L238.548126,190.87175L239.311005,193.133377C239.730576,194.377274,240.144058,195.508545,240.229828,195.647339C240.517426,196.112671,242.230759,195.735214,243.135742,195.007141zM302.101135,209.728638C302.757111,205.712952,302.783936,205.37384,302.453369,205.275604C301.873108,205.10318,297.703796,204.278076,295.073914,203.815247C293.614014,203.558304,291.445282,203.153778,290.254486,202.91629C287.997467,202.466156,286.623901,202.377319,286.195435,202.653778C285.785278,202.918411,285.4505,204.443573,285.304413,206.71286L285.167511,208.839859L286.249786,209.083984C287.527466,209.372162,290.71521,209.999435,294.410309,210.689758C295.870209,210.962494,297.860962,211.355988,298.834229,211.564163C301.903076,212.220612,301.672913,212.34993,302.101135,209.728638zM221.877777,174.18895C223.675323,173.928818,225.119431,173.239899,226.422836,172.020721C227.421082,171.086975,227.497223,170.940536,227.476776,169.993851C227.436783,168.143372,227.304794,167.956787,225.294678,166.909103C222.817596,165.618057,219.813644,163.746857,218.058578,162.401672C217.270386,161.797546,216.584991,161.343765,216.535492,161.393265C216.485977,161.442764,215.860672,162.779404,215.14592,164.363556C213.594193,167.802719,212.918518,170.632217,213.325012,171.988953C213.625641,172.992371,214.778809,173.954254,215.955658,174.183228C217.133514,174.412415,220.312454,174.415482,221.877777,174.18895zM236.311615,187.030487C236.45253,186.56015,236.56781,185.968063,236.56781,185.714722C236.56781,184.856934,237.667633,181.766296,238.117874,181.358841C238.537186,180.97937,238.754745,180.970673,241.576874,181.22052C243.233215,181.367157,244.640198,181.435349,244.703491,181.37204C244.766785,181.308746,244.555466,180.749847,244.233902,180.130035C243.452835,178.624573,238.718185,171.501465,238.196808,171.04747C237.823761,170.722626,237.429138,170.714691,234.063049,170.964249C232.016312,171.115997,230.248962,171.332916,230.135605,171.446259C230.00827,171.573608,230.046051,172.028061,230.234451,172.635452C230.402161,173.176147,230.760925,174.464615,231.031677,175.498703C232.440094,180.87793,233.815308,184.806061,235.077866,187.056137C235.669769,188.110992,235.989868,188.10434,236.311615,187.030487zM250.000687,178.604828C253.677734,177.408936,254.227448,177.171967,254.058228,176.855759C253.950562,176.654602,253.152649,174.500168,252.285095,172.068146C251.417526,169.636108,250.495346,167.173477,250.235794,166.595596C249.794525,165.613113,249.710114,165.544922,248.935272,165.544922C247.695557,165.544922,246.166718,166.301025,244.745056,167.617233C243.82547,168.468613,243.037567,168.955154,241.888977,169.38089C241.016602,169.704254,240.179123,169.968826,240.027924,169.968826C239.87674,169.968826,239.634979,170.086884,239.490692,170.231171C239.182892,170.538956,239.481049,171.091782,242.212326,175.277496C243.20462,176.798218,244.294357,178.520981,244.633942,179.10585C244.973541,179.690735,245.362991,180.12851,245.499405,180.078705C245.635803,180.028885,247.661392,179.365646,250.000687,178.604828zM303.230621,202.650391C303.544922,201.143341,303.727203,200.125732,304.924377,193.194305C305.187042,191.673584,305.591309,189.384216,305.822754,188.106812C306.054199,186.829422,306.243713,185.263596,306.243896,184.627213C306.244232,183.543152,306.205872,183.462112,305.635956,183.342911C305.301392,183.272919,304.410004,183.07196,303.65506,182.896301C302.900085,182.720657,302.224579,182.576935,302.15387,182.576935C302.083191,182.576935,302.666229,183.311798,303.449524,184.209946C305.388794,186.433517,305.50412,186.674667,304.83728,187.111603C304.545959,187.302475,303.559021,187.542603,302.644043,187.645203C301.729065,187.747818,300.863037,187.904343,300.719543,187.993042C300.541077,188.103333,300.481537,188.786392,300.531189,190.154419C300.582153,191.558472,300.52533,192.181808,300.340576,192.246033C300.195831,192.296356,299.490417,191.797882,298.77298,191.138336C297.838867,190.279556,297.22287,189.896286,296.603027,189.788177C295.484955,189.59317,294.562256,189.240158,293.801636,188.716446C292.898621,188.09465,292.31192,188.289703,291.644287,189.433731C290.920319,190.674271,290.137665,191.011215,289.228119,190.473923C288.320984,189.93808,288.156311,189.993958,287.892761,190.927048C287.394409,192.691269,285.991516,201.107071,286.166595,201.282135C286.366211,201.481766,293.829437,202.768738,294.852722,202.780014C295.339355,202.78537,296.057587,202.650757,296.448822,202.480865C297.102875,202.196869,297.200867,202.209961,297.665405,202.643433C298.496063,203.418518,300.608826,204.156158,302.192352,204.223938C302.8927,204.253906,302.897797,204.246216,303.230621,202.650391zM293.927094,194.286758C292.406555,193.711807,292.840027,191.645264,294.491028,191.598328C295.494385,191.569794,295.88208,191.998413,295.803741,193.049667C295.747559,193.803406,295.636536,193.979034,295.073914,194.204071C294.671326,194.365082,294.220245,194.397614,293.927094,194.286758zM294.940094,193.237686C295.239288,192.678589,294.905151,192.227966,294.327332,192.411346C293.878662,192.553757,293.692261,193.176697,294.004791,193.489227C294.276489,193.760941,294.724548,193.640442,294.940094,193.237686zM301.864594,190.93811C301.718597,190.792114,301.599152,190.349854,301.599152,189.955276C301.599152,188.618347,303.153748,188.092926,304.152954,189.092133C304.811584,189.750763,304.83728,190.177368,304.253479,190.761154C303.752747,191.261902,302.296265,191.369781,301.864594,190.93811zM303.589905,190.32338C303.880096,190.139877,303.873169,190.065002,303.534607,189.726379C303.165924,189.35759,303.12912,189.35759,302.760437,189.726379C302.421875,190.065002,302.414948,190.139877,302.705139,190.32338C302.887634,190.438782,303.0867,190.533188,303.147522,190.533188C303.208344,190.533188,303.40741,190.438782,303.589905,190.32338zM289.765228,199.120605C288.214142,198.231049,288.558716,196.291031,290.267792,196.291031C291.61853,196.291031,292.072144,197.790146,291.024994,198.793396C290.319122,199.469666,290.356812,199.459869,289.765228,199.120605zM290.720703,197.671234C290.778168,197.268341,290.685242,197.175812,290.222992,197.175812C289.819305,197.175812,289.654633,197.293304,289.654633,197.581329C289.654633,198.43869,290.599823,198.518402,290.720703,197.671234zM298.547302,198.667633C297.726288,197.678406,298.37204,196.069839,299.590179,196.069839C300.705627,196.069839,301.452362,197.465912,300.838226,198.403214C300.562897,198.823425,300.291199,198.945374,299.630371,198.945374C299.161438,198.945374,298.674072,198.820389,298.547302,198.667633zM300.232056,197.562897C300.186646,197.243073,299.983521,197.039948,299.663696,196.994537C299.258362,196.936966,299.166016,197.029312,299.166016,197.492218C299.166016,197.955124,299.271484,198.060593,299.734375,198.060593C300.197296,198.060593,300.289642,197.968231,300.232056,197.562897zM281.899384,222.281448C282.387665,219.335861,282.859436,216.371796,283.677307,211.111099C283.932678,209.468719,284.286499,207.229126,284.463623,206.134216C284.640747,205.039291,284.93927,203.098312,285.126984,201.820908C285.314728,200.543503,285.705353,197.905762,285.995087,195.959244C286.793823,190.592773,286.86969,189.453278,286.488342,188.54921C286.077423,187.57489,285.467896,184.616547,285.144257,182.025574L284.895782,180.036438L283.982635,181.482315C283.480408,182.277557,282.570007,183.474716,281.959503,184.142685C280.765259,185.449402,280.55368,186.001892,280.14505,188.880997C280.006927,189.854248,279.707397,191.795242,279.479462,193.194305C278.965179,196.350479,278.32608,200.503403,277.709351,204.696442C277.44989,206.46048,277.050232,209.147995,276.821198,210.668701C276.592163,212.189423,276.286102,214.439224,276.141052,215.668274L275.877319,217.902878L276.587921,218.875595C280.191559,223.808472,281.302246,225.287491,281.357849,225.227264C281.393524,225.188599,281.637238,223.862991,281.899384,222.281448zM277.493164,199.265961C277.611145,198.955673,277.958801,197.139099,278.265747,195.229156C278.572662,193.319214,279.032562,190.482239,279.287689,188.924789C279.542816,187.367325,279.689331,186.030823,279.613281,185.954773C279.3927,185.734192,278.152466,187.04155,278.152466,187.494659C278.152466,188.084396,277.162292,188.991592,276.518646,188.991592C275.841675,188.991592,275.056641,187.96582,275.053589,187.077301C275.052399,186.73111,274.790863,185.900391,274.472382,185.231277C274.1539,184.562164,273.771057,183.616562,273.621613,183.129929L273.349884,182.245148L271.446655,182.134552C269.93399,182.046646,269.482239,181.940063,269.2453,181.615204C268.998566,181.276962,268.539185,181.185623,266.582153,181.085739C265.281433,181.019363,264.217194,180.918381,264.217194,180.861359C264.217194,180.804337,264.685608,179.76181,265.258148,178.544662L266.299072,176.33165L265.482574,175.583374C264.196838,174.40509,263.423004,174.650208,263.193451,176.308441C263.128815,176.775513,262.893707,178.053497,262.671021,179.148422C260.561646,189.519531,260.014496,192.68187,260.014496,194.50174C260.014496,196.173325,260.523987,196.820953,262.025055,197.057419C263.414978,197.276367,270.86795,198.653458,274.613373,199.383362C277.345276,199.915741,277.244568,199.919846,277.493164,199.265961zM264.760132,184.909546C264.053253,184.202652,264.07431,183.628616,264.838531,182.773315C265.58551,181.937286,266.249786,182.030853,266.77478,183.046066C267.140259,183.752838,267.041962,184.424637,266.479309,185.065384C266.006653,185.603638,265.399139,185.548553,264.760132,184.909546zM266.134552,183.589478C266.060883,183.397552,265.858856,183.240524,265.685577,183.240524C265.248322,183.240524,265.039795,183.89444,265.355652,184.27504C265.581299,184.546936,265.661407,184.545441,265.942688,184.26416C266.121857,184.084991,266.208191,183.781387,266.134552,183.589478zM264.514801,194.200577C263.281494,193.664001,263.276062,192.276672,264.505249,191.759842C264.986084,191.557678,265.361633,191.534409,265.751495,191.682648C266.838837,192.096039,266.955933,193.039948,266.029968,193.927094C265.315155,194.611923,265.417725,194.593414,264.514801,194.200577zM265.668091,193.17308C265.750488,193.039734,265.661804,192.774567,265.471039,192.583786C265.191803,192.30455,265.059906,192.290283,264.794434,192.51059C264.613068,192.661102,264.519196,192.926285,264.585815,193.099884C264.728638,193.472061,265.453033,193.521057,265.668091,193.17308zM269.569611,189.931671C268.821411,189.284729,268.761047,188.630325,269.391479,187.999908C270.567749,186.823639,272.104279,187.565552,271.985229,189.252289C271.914917,190.24823,270.421478,190.668259,269.569611,189.931671zM271.034332,188.823441C271.087433,188.451172,270.994446,188.328003,270.660278,188.328003C270.130859,188.328003,269.879578,188.662598,270.058594,189.129135C270.247803,189.622208,270.951843,189.401642,271.034332,188.823441zM272.501953,197.075272C272.203339,196.776657,271.959015,196.286194,271.959015,195.985352C271.959015,195.030807,273.52124,194.168259,274.303741,194.690765C274.635986,194.912598,275.055756,195.741638,275.055756,196.175949C275.055756,196.685089,274.053986,197.618195,273.507385,197.618195C273.253021,197.618195,272.800568,197.373886,272.501953,197.075272zM273.949768,196.193481C273.949768,195.493668,273.557556,195.261292,273.118073,195.700775C272.832336,195.986511,272.82135,196.108063,273.055786,196.390533C273.486694,196.90976,273.949768,196.807693,273.949768,196.193481zM297.36734,236.472992C297.502808,236.309784,297.75415,235.389069,297.925903,234.426941C298.526123,231.065018,299.457886,225.572571,300.49295,219.295319C300.743683,217.774597,300.970764,215.743256,300.997498,214.781219L301.046173,213.032059L300.382568,212.841888C299.733643,212.655914,295.510223,211.801056,290.649994,210.871918C289.311768,210.616089,287.528961,210.26181,286.688171,210.08461C285.440369,209.821625,285.125549,209.815216,284.974731,210.049683C284.701996,210.473572,284.348572,211.807144,284.347168,212.417648C284.346497,212.710449,284.153229,214.054214,283.917664,215.403778C283.128296,219.926727,282.598846,223.374939,282.451843,224.950684C282.263489,226.969513,282.571136,227.37471,284.134705,227.167297C284.966064,227.057007,285.27652,227.113922,285.695831,227.45343C286.193237,227.856232,286.205566,227.928284,285.944122,228.905716C285.59491,230.211395,285.708862,230.419067,287.622589,231.965302C291.901978,235.422882,296.480957,237.541016,297.36734,236.472992zM293.237976,232.301575C292.894592,231.958191,292.894592,230.521515,293.237976,230.178116C293.383972,230.032135,293.861755,229.912674,294.299713,229.912674C295.284821,229.912674,295.626892,230.234421,295.626892,231.16095C295.626892,232.29216,294.003632,233.06723,293.237976,232.301575zM294.742126,231.129242C294.742126,230.496658,294.091187,230.359772,293.644165,230.898376C293.286957,231.328766,293.538574,231.682236,294.202179,231.682236C294.630646,231.682236,294.742126,231.568085,294.742126,231.129242zM288.404236,224.278961C287.63501,223.740173,287.607056,223.0784,288.323334,222.362152C289.419098,221.266388,290.76059,221.742081,290.76059,223.22641C290.76059,224.39212,289.420471,224.990753,288.404236,224.278961zM289.7995,223.377884C289.956482,222.968811,289.899384,222.899643,289.322815,222.800171C289.003235,222.745026,288.86084,222.861969,288.809753,223.221527C288.755707,223.602142,288.848389,223.719208,289.203796,223.719208C289.459381,223.719208,289.727448,223.565613,289.7995,223.377884zM294.112457,220.677795C293.351563,220.03392,293.282166,219.186798,293.936676,218.532257C294.584778,217.884186,295.100464,217.823303,295.798859,218.312469C296.473267,218.784851,296.462921,219.940979,295.778534,220.583923C295.158997,221.165955,294.718689,221.190765,294.112457,220.677795zM295.405701,219.405914C295.405701,218.816818,295.004089,218.679413,294.565155,219.118362C294.126221,219.557297,294.263611,219.958893,294.852722,219.958893C295.295105,219.958893,295.405701,219.848297,295.405701,219.405914zM287.885071,216.471161C287.207703,216.248413,286.779083,215.671295,286.779083,214.98201C286.779083,214.112793,287.362823,213.54425,288.25531,213.54425C289.335266,213.54425,289.937073,214.541611,289.517212,215.635681C289.342529,216.090912,288.32016,216.614258,287.885071,216.471161zM288.659241,214.98201C288.659241,214.493347,287.969238,214.256363,287.60553,214.620102C287.442871,214.782715,287.460449,214.95813,287.663971,215.203323C288.04895,215.667221,288.659241,215.531525,288.659241,214.98201zM281.249207,273.799805C339.94928,273.645874,354.903198,273.479492,357.224365,272.954529C361.003967,272.09964,364.084351,269.428436,365.5224,265.758667C366.315369,263.735138,366.71344,260.315094,366.419708,258.049957C366.08783,255.490906,365.406128,254.137619,363.496277,252.246643C361.711273,250.479218,360.259857,249.71283,358.047729,249.369614C354.625122,248.838577,351.818359,250.094818,350.219727,252.87323C349.555878,254.027008,349.494324,254.293854,349.491241,256.030518C349.488159,257.758362,349.547485,258.023987,350.156372,259.009338C351.020264,260.407257,352.264679,261.25589,353.725342,261.443146C355.034119,261.610962,356.457092,261.421143,357.029755,261.00238C357.380341,260.746033,357.280029,260.672668,356.11676,260.334473C353.034698,259.438507,352.363464,258.634827,352.511353,256.01767C352.612396,254.229553,353.143372,253.394287,354.627228,252.689255C355.997101,252.038391,357.748779,252.019348,359.148712,252.640121C360.354431,253.174774,362.088837,254.702118,362.589844,255.67041C363.561554,257.548584,363.7742,260.177002,363.18512,263.028931C362.511841,266.288483,361.193115,268.055084,358.307465,269.56311L356.730865,270.387024L338.068115,270.607056C327.803589,270.728088,296.437012,270.828583,268.364594,270.830414L217.323853,270.83374L217.323853,272.519897L217.323853,274.206055L223.793808,274.069763C227.35228,273.994812,253.207214,273.873322,281.249207,273.799805zM325.561981,269.427612C325.338928,269.140808,324.725433,268.375305,324.1987,267.72641C322.981781,266.227417,322.198151,264.693054,321.718781,262.870728L321.340546,261.432983L285.411774,261.377014L249.482971,261.321045L249.107574,262.885223C248.580048,265.083252,247.835327,266.536621,246.299026,268.366333L244.9702,269.948975L285.468842,269.948975L325.967499,269.948975L325.561981,269.427612zM339.916748,259.910706C340.071289,259.673981,341.787048,255.39151,345.953369,244.843338C351.230408,231.483093,352.916382,227.090546,352.916382,226.702393C352.916382,226.215622,351.162354,226.040924,346.391144,226.05246C340.898956,226.065765,338.912079,226.457947,334.999603,228.300995C332.011444,229.708633,330.356659,230.956436,326.777252,234.50116L323.310608,237.934204L309.966431,237.817993C297.26947,237.707397,296.536438,237.678986,294.852722,237.231995C292.862671,236.703674,290.999786,235.641022,287.986176,233.315094C283.664032,229.979233,283.409454,229.678314,274.254456,217.083374C270.223206,211.537384,267.709015,208.436737,265.17804,205.889801C260.755219,201.439041,257.653015,199.648239,251.166687,197.801453C248.989044,197.181442,248.533615,197.13266,243.867249,197.019745C240.826538,196.946152,238.010162,196.995544,236.627823,197.146698C232.755981,197.570068,228.74118,199.158234,222.853729,202.595428C218.822617,204.948853,215.824875,206.213593,212.397995,207.006668C211.209503,207.281723,210.18869,207.555161,210.129547,207.614319C210.070404,207.673462,210.581299,209.305618,211.264893,211.241333C211.948471,213.177048,212.639008,215.158966,212.799423,215.645599C212.959839,216.132233,213.603989,217.973679,214.230896,219.737701C214.857788,221.50174,215.500565,223.34317,215.659302,223.829803C215.818024,224.316437,216.567062,226.456512,217.323853,228.58551C218.080627,230.714508,218.829681,232.854568,218.988403,233.341202C219.147125,233.82782,219.789917,235.669281,220.416809,237.433304C221.043701,239.197342,221.688538,241.038788,221.849777,241.525421C222.011017,242.012054,222.810242,244.301407,223.625839,246.6129C224.441452,248.924393,225.189835,251.064453,225.28894,251.368591C225.388031,251.672729,226.124878,253.807129,226.926361,256.111694C227.727844,258.41626,228.383606,260.317139,228.383606,260.335876C228.383606,260.354584,253.44223,260.322205,284.069458,260.263947C324.762695,260.186523,339.798767,260.091431,339.916748,259.910706zM230.40036,257.064362C230.299026,256.790649,230.009827,255.969452,229.75769,255.239502C229.334824,254.015274,227.039017,247.446198,225.85379,244.069153C225.576263,243.278381,224.796265,241.038788,224.120453,239.09227C221.068268,230.301025,219.242874,225.062958,218.84024,223.940414C218.60025,223.271301,218.220459,222.176376,217.996246,221.507263C217.772049,220.83815,216.970367,218.548782,216.214752,216.419785C215.459122,214.290771,214.660568,211.971313,214.440186,211.265411L214.039474,209.981964L214.741577,209.688354C215.127747,209.526871,216.23999,209.0802,217.213257,208.69574C218.186508,208.311279,221.122879,206.860703,223.73851,205.472229C233.941727,200.056,233.962357,200.049866,241.967178,200.055191C246.139191,200.057968,248.155518,200.147461,249.244431,200.378189C252.465591,201.060715,256.630524,202.785751,259.156006,204.483368C262.334015,206.619629,267.979614,213.073837,272.402466,219.627106C273.799591,221.697189,277.560608,226.674774,279.329346,228.794586C284.140442,234.560654,288.298889,237.909546,292.815369,239.655151C295.275787,240.606079,297.720734,240.740326,312.688416,240.746216L325.436646,240.751236L326.762573,238.926224C328.303101,236.805908,331.006683,234.147858,332.99881,232.795013C335.087219,231.376831,338.262482,229.955841,340.456787,229.457474C342.737457,228.939484,348.344635,228.609695,348.573547,228.980072C348.653931,229.110123,348.511658,229.796204,348.257416,230.504669C346.957672,234.126587,345.740112,237.319763,343.296082,243.516174C342.480316,245.584351,341.565063,247.923477,341.262115,248.714264C340.959198,249.505035,340.581116,250.450638,340.421906,250.815613C340.262726,251.180573,339.864441,252.175964,339.536865,253.027557C339.20929,253.87915,338.76416,254.97406,338.547668,255.460693C338.331177,255.947327,338.089783,256.553009,338.011292,256.806641L337.86853,257.267792L311.494324,257.414825C296.988525,257.495667,272.84964,257.56189,257.852356,257.561951L230.584595,257.562073L230.40036,257.064362zM337.2341,256.210144C337.497925,255.798981,342.568787,243.025269,346.532043,232.788208C347.120789,231.267487,347.603668,229.933838,347.605103,229.824509C347.606598,229.711395,346.535339,229.678619,345.119263,229.748444C341.077759,229.947754,337.156311,231.190033,333.78302,233.33963C331.977325,234.490326,328.586426,237.836029,327.111969,239.921753L325.900146,241.636017L319.666626,241.623413C316.23819,241.616486,309.152954,241.528442,303.921692,241.427765C293.114502,241.219788,293.421936,241.267517,289.765228,239.229889C284.192749,236.124741,280.126953,231.768127,270.954803,219.074127C264.000671,209.449768,260.941589,206.277756,256.254181,203.83075C252.067322,201.645035,248.919189,200.927338,242.842957,200.773254C239.985931,200.700806,237.870438,200.750824,236.940033,200.912857C234.472626,201.342529,231.505554,202.437744,228.162415,204.152878C226.398376,205.057892,222.793121,206.869293,220.150726,208.178223C217.508331,209.487152,215.343384,210.669357,215.339737,210.805313C215.331573,211.109131,216.179733,213.676071,218.108444,219.184723C218.917755,221.496216,219.960281,224.48233,220.425186,225.820572C220.890076,227.158798,221.886505,229.995621,222.639465,232.124634C223.392441,234.253632,224.138367,236.393677,224.297089,236.88031C224.455811,237.366943,225.098587,239.208405,225.725494,240.972427C226.352386,242.73645,226.996887,244.577911,227.157715,245.064545C227.318527,245.551178,228.116806,247.84053,228.931656,250.152023C229.746506,252.463501,230.493347,254.603577,230.591324,254.907715C230.689301,255.211853,230.882675,255.748901,231.021057,256.101166L231.272644,256.741608L284.154846,256.629425C328.937439,256.534393,337.067261,256.470184,337.2341,256.210144zM268.562927,252.754272C268.502441,252.539612,268.388306,252.015594,268.309296,251.589783C268.040253,250.139496,267.986572,250.075439,266.735077,249.711639C265.309418,249.29718,265.279785,248.952927,266.635986,248.560272C267.970032,248.174042,268.117523,247.994278,268.421326,246.384247C268.569733,245.597565,268.773346,244.953949,268.873779,244.953949C268.974213,244.953949,269.118256,245.426743,269.193909,246.004608C269.4552,248.00116,269.619141,248.171875,271.848419,248.768936L272.954407,249.06514L271.737823,249.460129C269.89093,250.059753,269.639404,250.291138,269.329559,251.675568C269.036499,252.985077,268.743988,253.396667,268.562927,252.754272zM331.119873,251.698364C330.906067,250.908478,330.62149,250.174774,330.487518,250.067917C330.353546,249.96106,329.646667,249.699036,328.916748,249.485672C327.468018,249.062164,327.43161,249.111053,329.645813,248.507172C330.601776,248.24646,330.715851,248.104813,331.156769,246.630981C331.461182,245.613495,331.826965,245.717148,332.231628,246.935547C332.636108,248.15329,332.897247,248.372467,334.229492,248.612381C335.812988,248.897537,335.813995,249.070404,334.235138,249.595795C332.87619,250.048035,332.706268,250.173767,332.327942,251.006927C332.099487,251.509979,331.9104,252.139664,331.907745,252.406219C331.89743,253.435516,331.491333,253.070694,331.119873,251.698364zM315.415649,251.696747C315.004059,250.043823,314.996429,250.032791,314.106781,249.803421C312.534393,249.398026,312.411865,249.344803,312.492676,249.102295C312.536316,248.97139,313.035065,248.729279,313.600983,248.56427C314.783752,248.219376,315.178284,247.75415,315.563904,246.249512C315.715363,245.6586,315.900085,245.17514,315.974396,245.17514C316.048706,245.17514,316.230652,245.761566,316.378662,246.478302C316.689453,247.982925,316.813599,248.116486,318.281738,248.526077C318.880341,248.693069,319.405518,248.935974,319.448853,249.065887C319.492126,249.195801,318.924805,249.469666,318.18808,249.6745C316.700623,250.088043,316.547485,250.295273,316.288879,252.24472C316.207581,252.857758,316.070984,253.359344,315.985352,253.359344C315.899719,253.359344,315.643372,252.611176,315.415649,251.696747zM284.298157,252.784576C284.234741,252.674896,284.111176,252.188843,284.02356,251.704468C283.786621,250.394318,283.6073,250.181366,282.364655,249.734528C281.740326,249.51001,281.264954,249.220032,281.308228,249.090149C281.351563,248.960236,281.87854,248.691254,282.47937,248.492401C283.466248,248.165802,283.604095,248.036179,283.906555,247.150696C284.53894,245.29921,284.887878,245.141205,285.107635,246.606781C285.292114,247.836823,285.854279,248.313019,287.587708,248.707581L288.880432,249.001831L287.175537,249.525452C285.543396,250.026703,285.460815,250.08432,285.241302,250.874725C285.115173,251.328827,285.011444,251.805786,285.010773,251.934601C285.008789,252.30809,284.425171,253.004211,284.298157,252.784576zM252.991577,252.916962C252.870483,252.612823,252.699188,252.015594,252.610931,251.589783C252.394012,250.543427,251.905579,249.820221,251.415802,249.820221C250.729736,249.820221,249.593826,249.340729,249.678452,249.086853C249.72258,248.954468,250.228058,248.72644,250.801727,248.580078C252.198242,248.223831,252.376633,248.038757,252.695129,246.615509C252.8452,245.944962,253.04454,245.396332,253.138107,245.396332C253.231689,245.396332,253.429047,245.936096,253.576675,246.59581C253.724304,247.255524,253.969818,247.898788,254.122238,248.025284C254.274658,248.151779,254.981079,248.406799,255.692047,248.59198C256.403015,248.777161,257.025787,248.969742,257.075958,249.019928C257.12616,249.070114,256.512848,249.328934,255.713043,249.595093C254.108078,250.129181,253.95607,250.308456,253.513214,252.189453C253.235031,253.371017,253.194733,253.427216,252.991577,252.916962zM299.979248,252.529877C299.925568,252.438629,299.812714,252.015594,299.728485,251.589783C299.442932,250.146042,299.377045,250.055557,298.433777,249.811996C296.87738,249.41011,296.732849,249.354675,296.732849,249.159515C296.732849,249.055832,297.234314,248.804443,297.847229,248.600876C299.024719,248.209778,299.471924,247.723312,299.711487,246.572876C299.996948,245.202209,300.391907,245.269714,300.864655,246.769958L301.298309,248.146133L302.672211,248.550751C303.427856,248.77327,303.995789,249.036743,303.934296,249.136261C303.872803,249.235748,303.347137,249.44548,302.766113,249.602325C301.563965,249.926849,300.935577,250.381744,300.935577,250.92749C300.935577,251.916824,300.27243,253.027985,299.979248,252.529877zM237.412247,253.020966C237.342575,252.902924,237.122772,252.239075,236.923798,251.545746C236.511993,250.11084,236.495712,250.095673,234.692505,249.464813L233.360489,248.998779L234.687653,248.721954C235.417603,248.569687,236.133804,248.348694,236.279205,248.230865C236.424606,248.113037,236.710571,247.501709,236.914673,246.872375C237.429031,245.286438,237.575256,245.213593,237.872757,246.39505C238.200653,247.697235,238.901917,248.40007,240.070282,248.597473C241.358002,248.815033,241.382996,249.05777,240.163651,249.503967C238.724991,250.030411,238.195618,250.605133,237.840988,252.025589C237.67485,252.691071,237.481918,253.139008,237.412247,253.020966z"/>
</svg>
